/* XPM */
static char *b7d7e5e9c1a34fa2c3807e57b31d336fQKhWvwkM8M3rcig6[] = {
/* columns rows colors chars-per-pixel */
"32 32 49 1 ",
"  c None",
". c black",
"X c #010000",
"o c #000100",
"O c #010100",
"+ c #000001",
"@ c #010001",
"# c #000101",
"$ c #010101",
"% c #242628",
"& c #252628",
"* c #242728",
"= c #252728",
"- c #242629",
"; c #252629",
": c #242729",
"> c #252729",
", c #343434",
"< c #353434",
"1 c #343534",
"2 c #353534",
"3 c #343435",
"4 c #766F46",
"5 c #B1A460",
"6 c #B1A561",
"7 c #E9DA8A",
"8 c #E8DA8B",
"9 c #A6BEC8",
"0 c #A7BEC8",
"q c #A6BFC8",
"w c #A7BFC8",
"e c #A6BEC9",
"r c #A7BEC9",
"t c #A6BFC9",
"y c #A7BFC9",
"u c #BACED8",
"i c #BBCED8",
"p c #BACFD8",
"a c #BBCFD8",
"s c #BACED9",
"d c #BBCED9",
"f c #D2E0E6",
"g c #D3E0E6",
"h c #D2E1E6",
"j c #D3E1E6",
"k c #D2E0E7",
"l c #D3E0E7",
"z c #D2E1E7",
"x c #D3E1E7",
/* pixels */
"tttttttttt t  tttttttt tt t ttt ",
"tttt ttttt ttttttt ttttttt ttttt",
"t ttttil  litttttttttilll tttttt",
"  t tillllll tt ttttill llit ttt",
"ttttilllllllli t t ill l l itt t",
"ttt l l l  lllit ...llll...littt",
"t i llll.lllll i.....ll.....lit ",
"ttl lll.-.l ll  .....ll.....l tt",
"t l lll.-.llll l............l tt",
"ttll l .-.llll l............l tt",
"tt lll.--.l lll.............lltt",
"ttl l.--.llllll......8....8..ltt",
"ttl  .-.llll  l......6....6.. t ",
" ti l.-.l l lll..............itt",
"tt i .--.l lllll.-----....--. t ",
"tttti.---.......2...---..--.tttt",
"ttttt.----------22.-------.tt tt",
"ttttil.----------22.......l tttt",
"tttill.-----------2222222llli tt",
"tti  ll..------------4--.ll  itt",
"ttl  ll .---------------. llllt ",
"t ll  ll.---------------.llll tt",
" tllll l.--------------.lllllltt",
"ttlll ll.---.---.--.---.lll   tt",
"ttlll ll.---.---.--.---. ll llt ",
"t i llll.--..--..--..--.   lli t",
"t   lllll... ...t... ..lll littt",
"tt tillllllllittttt  ll lllitt t",
"tttttilll ll  t t ttilllllitt tt",
"t ttt  l llittttt ttt ll   ttttt",
"tttttt   tt ttt tttt  tt ttt  t ",
"tttttttttt ttt ttt ttt  ttt t tt"
};
