/* XPM */
static const char *floor_img[] = {
/* columns rows colors chars-per-pixel */
"32 32 2 1 ",
"  c #820474",
". c #DE2481",
/* pixels */
".. ... ... ... ... ... ... ... .",
". ... ... ... ... ... ... ... ..",
" ... ... ... ... ... ... ... ...",
"... ... ... ... ... ... ... ... ",
".. ... ... ... ... ... ... ... .",
". ... ... ... ... ... ... ... ..",
" ... ... ... ... ... ... ... ...",
"... ... ... ... ... ... ... ... ",
".. ... ... ... ... ... ... ... .",
". ... ... ... ... ... ... ... ..",
" ... ... ... ... ... ... ... ...",
"... ... ... ... ... ... ... ... ",
".. ... ... ... ... ... ... ... .",
". ... ... ... ... ... ... ... ..",
" ... ... ... ... ... ... ... ...",
"... ... ... ... ... ... ... ... ",
".. ... ... ... ... ... ... ... .",
". ... ... ... ... ... ... ... ..",
" ... ... ... ... ... ... ... ...",
"... ... ... ... ... ... ... ... ",
".. ... ... ... ... ... ... ... .",
". ... ... ... ... ... ... ... ..",
" ... ... ... ... ... ... ... ...",
"... ... ... ... ... ... ... ... ",
".. ... ... ... ... ... ... ... .",
". ... ... ... ... ... ... ... ..",
" ... ... ... ... ... ... ... ...",
"... ... ... ... ... ... ... ... ",
".. ... ... ... ... ... ... ... .",
". ... ... ... ... ... ... ... ..",
" ... ... ... ... ... ... ... ...",
"... ... ... ... ... ... ... ... "
};
