/* XPM */
static char *_b77cc317afd4b88a1ca734260edd1b5yDzsHNykq6qbm8GB[] = {
/* columns rows colors chars-per-pixel */
"32 32 3 1 ",
"  c #A6BFC9",
". c #BBCED8",
"X c #D3E0E7",
/* pixels */
"                                ",
"                                ",
"      .XXXX.         .XXX.      ",
"     .XXXXXX.       .XXXXX.     ",
"    .XXXXXXXX.     .XXXXXXX.    ",
"   .XXXXXXXXXX.   .XXXXXXXXX.   ",
"  .XXXXXXXXXXXX. .XXXXXXXXXXX.  ",
"  XXXXXXXXXXXXXX.XXXXXXXXXXXXX  ",
"  XXXXXXXXXXXXXXXXXXXXXXXXXXXX  ",
"  XXXXXXXXXXXXXXXXXXXXXXXXXXXX  ",
"  XXXXXXXXXXXXXXXXXXXXXXXXXXXX  ",
"  XXXXXXXXXXXXXXXXXXXXXXXXXXXX  ",
"  XXXXXXXXXXXXXXXXXXXXXXXXXXXX  ",
"  .XXXXXXXXXXXXXXXXXXXXXXXXXX.  ",
"   .XXXXXXXXXXXXXXXXXXXXXXXX.   ",
"    .XXXXXXXXXXXXXXXXXXXXXX.    ",
"     .XXXXXXXXXXXXXXXXXXXX.     ",
"    .XXXXXXXXXXXXXXXXXXXXXX.    ",
"   .XXXXXXXXXXXXXXXXXXXXXXXX.   ",
"  .XXXXXXXXXXXXXXXXXXXXXXXXXX.  ",
"  XXXXXXXXXXXXXXXXXXXXXXXXXXXX  ",
"  XXXXXXXXXXXXXXXXXXXXXXXXXXXX  ",
"  XXXXXXXXXXXXXXXXXXXXXXXXXXXX  ",
"  XXXXXXXXXXXXXXXXXXXXXXXXXXXX  ",
"  XXXXXXXXXXXXXX.XXXXXXXXXXXXX  ",
"  .XXXXXXXXXXXX. .XXXXXXXXXXX.  ",
"   .XXXXXXXXXX.   .XXXXXXXXX.   ",
"    .XXXXXXXX.     .XXXXXXX.    ",
"     .XXXXXX.       .XXXXX.     ",
"      .XXXX.         .XXX.      ",
"                                ",
"                                "
};
