/* XPM */
static char *_f6d7a1642d2415dd268d26f0af3a052BxppoJ7pInAXr1lg[] = {
/* columns rows colors chars-per-pixel */
"96 96 10 1 ",
"  c #300A0A",
". c #4E1C10",
"X c #663015",
"o c #792F3D",
"O c #80411D",
"+ c #965222",
"@ c #8D3A4D",
"# c #A6BFC9",
"$ c #BBCED8",
"% c #D3E0E7",
/* pixels */
"################################################################################################",
"################################################################################################",
"################################################################################################",
"################################################################################################",
"################################################################################################",
"################################################################################################",
"##################$$$%%%%%%%%%%%%$$$###########################$$$%%%%%%%%%$$$##################",
"##################$$$%%%%%%%%%%%%$$$###########################$$$%%%%%%%%%$$$##################",
"##################$$$%%%%%%%%%%%%$$$###########################$$$%%%%%%%%%$$$##################",
"###############$$$%%%%%%%%%%%%%%%%%%$$$#####################$$$%%%%%%%%%%%%%%%$$$###############",
"###############$$$%%%%%%%%%%%%%%%%%%$$$#####################$$$%%%%%%%%%%%%%%%$$$###############",
"###############$$$%%%%%%%%%%%%%%%%%%$$$#####################$$$%%%%%%%%%%%%%%%$$$###############",
"############$$$%%%%%%%%%%%%%%%%%%%%%%%%$$$###############$$$%%%%%%%%%%%%%%%%%%%%%$$$############",
"############$$$%%%%%%%%%%%%%%%%%%%%%%%%$$$###############$$$%%%%%%%%%%%%%%%%%%%%%$$$############",
"############$$$%%%%%%%%%%%%%%%%%%%%%%%%$$$###############$$$%%%%%%%%%%%%%%%%%%%%%$$$############",
"#########$$$%%%%%%%%%%%%%%%%%%%%%%%%%%%%%%$$$#########$$$%%%%%%%%%%%%%%%%%%%%%%%%%%%$$$#########",
"#########$$$%%%%%%%%%%%%%%%%%%%%%%%%%%%%%%$$$#########$$$%%%%%%%%%%%%%%%%%%%%%%%%%%%$$$#########",
"#########$$$%%%%%%%%%%%%%%%%%%%%%%%%%%%%%%$$$#########$$$%%%%%%%%%%%%%%%%%%%%%%%%%%%$$$#########",
"######$$$%%%%%%%%%%%%%%%%%%%%%%%%%%%%%%%%%%%%$$$###$$$%%%%%%%%%%%%%%%%%%%%%%%%%%%%%%%%%$$$######",
"######$$$%%%%%%%%%%%%%%%%%%%%%%%%%%%%%%%%%%%%$$$###$$$%%%%%%%%%%%%%%%%%%%%%%%%%%%%%%%%%$$$######",
"######$$$%%%%%%%%%%%%%%%%%%%%%%%%%%%%%%%%%%%%$$$###$$$%%%%%%%%%%%%%%%%%%%%%%%%%%%%%%%%%$$$######",
"######%%%%%%%%%%%%%%%%%%%%%%%%%%%%%%%%%%%%%%%%%%$$$%%%%%%%%%%%%%%%%%%%%%%%%%%%%%%%%%%%%%%%######",
"######%%%%%%%%%%%%%%%%%%%%%%%%%%%%%%%%%%%%%%%%%%$$$%%%%%%%%%%%%%%%%%%%%%%%%%%%%%%%%%%%%%%%######",
"######%%%%%%%%%%%%%%%%%%%%%%%%%%%%%%%%%%%%%%%%%%$$$%%%%%%%%%%%%%%%%%%%%%%%%%%%%%%%%%%%%%%%######",
"######%%%%%%%%%%%%%%%%%%%%%%%%%%%%%%%%%%%%%%%%%%%%%%%%%%%%%%%%%%%%%%%%%%%%%%%%%%%%%%%%%%%%######",
"######%%%%%%%%%%%%%%%%%%%%%%%%%%%%%%%%%%%%%%%%%%%%%%%%%%%%%%%%%%%%%%%%%%%%%%%%%%%%%%%%%%%%######",
"######%%%%%%%%%%%%%%%%%%%%%%%%%%%%%%%%%%%%%%%%%%%%%%%%%%%%%%%%%%%%%%%%%%%%%%%%%%%%%%%%%%%%######",
"######%%%%%%%%%%%%%%                                                         %%%%%%%%%%%%%######",
"######%%%%%%%%%%%%%%                                                         %%%%%%%%%%%%%######",
"######%%%%%%%%%%%%%%                                                         %%%%%%%%%%%%%######",
"######%%%%%%%%      +++++++++++++++++++++++++++++++++++++++++++++++++++++++++      %%%%%%%######",
"######%%%%%%%%      +++++++++++++++++++++++++++++++++++++++++++++++++++++++++      %%%%%%%######",
"######%%%%%%%%      +++++++++++++++++++++++++++++++++++++++++++++++++++++++++      %%%%%%%######",
"######%%%%%   ++++++OOOOOOOOOOOOOOOOOOOOOOOOOOOOOOOOOOOOOOOOOOOOOOOOOOOOOOOOO++++++   %%%%######",
"######%%%%%   ++++++OOOOOOOOOOOOOOOOOOOOOOOOOOOOOOOOOOOOOOOOOOOOOOOOOOOOOOOOO++++++   %%%%######",
"######%%%%%   ++++++OOOOOOOOOOOOOOOOOOOOOOOOOOOOOOOOOOOOOOOOOOOOOOOOOOOOOOOOO++++++   %%%%######",
"######%%   +++...OOOOOOXXX.............................................XXXOOOOOO...+++   %######",
"######%%   +++...OOOOOOXXX.............................................XXXOOOOOO...+++   %######",
"######%%   +++...OOOOOOXXX.............................................XXXOOOOOO...+++   %######",
"######$$   +++...XXX......@@@@@@@@@@@@@@@@@@@@@@@@@@@@@@@@@@@@@@@@@@@@@......XXX...+++   $######",
"######$$   +++...XXX......@@@@@@@@@@@@@@@@@@@@@@@@@@@@@@@@@@@@@@@@@@@@@......XXX...+++   $######",
"######$$   +++...XXX......@@@@@@@@@@@@@@@@@@@@@@@@@@@@@@@@@@@@@@@@@@@@@......XXX...+++   $######",
"########   +++......@@@@@@@@@@@@@@@@@@@@@@@@@@@@@@@@@@@@@@@@@@@@@@@@@@@@@@@@@......+++   #######",
"########   +++......@@@@@@@@@@@@@@@@@@@@@@@@@@@@@@@@@@@@@@@@@@@@@@@@@@@@@@@@@......+++   #######",
"########   +++......@@@@@@@@@@@@@@@@@@@@@@@@@@@@@@@@@@@@@@@@@@@@@@@@@@@@@@@@@......+++   #######",
"########   +++...@@@@@@@@@@@@@@@@@@@@@@@@@@@@@@@@@@@@@@@@@@@@@@@@@@@@@@@@@@@@@@@...+++   #######",
"########   +++...@@@@@@@@@@@@@@@@@@@@@@@@@@@@@@@@@@@@@@@@@@@@@@@@@@@@@@@@@@@@@@@...+++   #######",
"########   +++...@@@@@@@@@@@@@@@@@@@@@@@@@@@@@@@@@@@@@@@@@@@@@@@@@@@@@@@@@@@@@@@...+++   #######",
"########   +++...@@@@@@@@@@@@@@@@@@@@@@@@@@@@@@@@@@@@@@@@@@@@@@@@@@@@@@@@@@@@@@@...+++   #######",
"########   +++...@@@@@@@@@@@@@@@@@@@@@@@@@@@@@@@@@@@@@@@@@@@@@@@@@@@@@@@@@@@@@@@...+++   #######",
"########   +++...@@@@@@@@@@@@@@@@@@@@@@@@@@@@@@@@@@@@@@@@@@@@@@@@@@@@@@@@@@@@@@@...+++   #######",
"########   OOO+++...............@@@@@@@@@@@@@@@@@@@@@@@@@@@@@@..................+++OOO   #######",
"########   OOO+++...............@@@@@@@@@@@@@@@@@@@@@@@@@@@@@@..................+++OOO   #######",
"########   OOO+++...............@@@@@@@@@@@@@@@@@@@@@@@@@@@@@@..................+++OOO   #######",
"########   OOOOOO+++++++++++++++...oooooooooooooooooooooooo...++++++++++++++++++OOOOOO   #######",
"########   OOOOOO+++++++++++++++...oooooooooooooooooooooooo...++++++++++++++++++OOOOOO   #######",
"########   OOOOOO+++++++++++++++...oooooooooooooooooooooooo...++++++++++++++++++OOOOOO   #######",
"######$$$%%   OOOOOOOOOOOOOOOOOO+++........................+++OOOOOOOOOOOOOOOOOOOOO   %$$$######",
"######$$$%%   OOOOOOOOOOOOOOOOOO+++........................+++OOOOOOOOOOOOOOOOOOOOO   %$$$######",
"######$$$%%   OOOOOOOOOOOOOOOOOO+++........................+++OOOOOOOOOOOOOOOOOOOOO   %$$$######",
"######%%%%%%%%      OOOOOOOOOOOOOOOOOOOOO+++++++++++++++OOOOOOOOOOOOOOOOOOOOO      %%%%%%%######",
"######%%%%%%%%      OOOOOOOOOOOOOOOOOOOOO+++++++++++++++OOOOOOOOOOOOOOOOOOOOO      %%%%%%%######",
"######%%%%%%%%      OOOOOOOOOOOOOOOOOOOOO+++++++++++++++OOOOOOOOOOOOOOOOOOOOO      %%%%%%%######",
"######%%%%%%%%%%%%%%                                                         %%%%%%%%%%%%%######",
"######%%%%%%%%%%%%%%                                                         %%%%%%%%%%%%%######",
"######%%%%%%%%%%%%%%                                                         %%%%%%%%%%%%%######",
"######%%%%%%%%%%%%%%%%%%%%%%%%%%%%%%%%%%%%%%%%%%%%%%%%%%%%%%%%%%%%%%%%%%%%%%%%%%%%%%%%%%%%######",
"######%%%%%%%%%%%%%%%%%%%%%%%%%%%%%%%%%%%%%%%%%%%%%%%%%%%%%%%%%%%%%%%%%%%%%%%%%%%%%%%%%%%%######",
"######%%%%%%%%%%%%%%%%%%%%%%%%%%%%%%%%%%%%%%%%%%%%%%%%%%%%%%%%%%%%%%%%%%%%%%%%%%%%%%%%%%%%######",
"######%%%%%%%%%%%%%%%%%%%%%%%%%%%%%%%%%%%%%%%%%%%%%%%%%%%%%%%%%%%%%%%%%%%%%%%%%%%%%%%%%%%%######",
"######%%%%%%%%%%%%%%%%%%%%%%%%%%%%%%%%%%%%%%%%%%%%%%%%%%%%%%%%%%%%%%%%%%%%%%%%%%%%%%%%%%%%######",
"######%%%%%%%%%%%%%%%%%%%%%%%%%%%%%%%%%%%%%%%%%%%%%%%%%%%%%%%%%%%%%%%%%%%%%%%%%%%%%%%%%%%%######",
"######%%%%%%%%%%%%%%%%%%%%%%%%%%%%%%%%%%%%%%%%%%$$$%%%%%%%%%%%%%%%%%%%%%%%%%%%%%%%%%%%%%%%######",
"######%%%%%%%%%%%%%%%%%%%%%%%%%%%%%%%%%%%%%%%%%%$$$%%%%%%%%%%%%%%%%%%%%%%%%%%%%%%%%%%%%%%%######",
"######%%%%%%%%%%%%%%%%%%%%%%%%%%%%%%%%%%%%%%%%%%$$$%%%%%%%%%%%%%%%%%%%%%%%%%%%%%%%%%%%%%%%######",
"######$$$%%%%%%%%%%%%%%%%%%%%%%%%%%%%%%%%%%%%$$$###$$$%%%%%%%%%%%%%%%%%%%%%%%%%%%%%%%%%$$$######",
"######$$$%%%%%%%%%%%%%%%%%%%%%%%%%%%%%%%%%%%%$$$###$$$%%%%%%%%%%%%%%%%%%%%%%%%%%%%%%%%%$$$######",
"######$$$%%%%%%%%%%%%%%%%%%%%%%%%%%%%%%%%%%%%$$$###$$$%%%%%%%%%%%%%%%%%%%%%%%%%%%%%%%%%$$$######",
"#########$$$%%%%%%%%%%%%%%%%%%%%%%%%%%%%%%$$$#########$$$%%%%%%%%%%%%%%%%%%%%%%%%%%%$$$#########",
"#########$$$%%%%%%%%%%%%%%%%%%%%%%%%%%%%%%$$$#########$$$%%%%%%%%%%%%%%%%%%%%%%%%%%%$$$#########",
"#########$$$%%%%%%%%%%%%%%%%%%%%%%%%%%%%%%$$$#########$$$%%%%%%%%%%%%%%%%%%%%%%%%%%%$$$#########",
"############$$$%%%%%%%%%%%%%%%%%%%%%%%%$$$###############$$$%%%%%%%%%%%%%%%%%%%%%$$$############",
"############$$$%%%%%%%%%%%%%%%%%%%%%%%%$$$###############$$$%%%%%%%%%%%%%%%%%%%%%$$$############",
"############$$$%%%%%%%%%%%%%%%%%%%%%%%%$$$###############$$$%%%%%%%%%%%%%%%%%%%%%$$$############",
"###############$$$%%%%%%%%%%%%%%%%%%$$$#####################$$$%%%%%%%%%%%%%%%$$$###############",
"###############$$$%%%%%%%%%%%%%%%%%%$$$#####################$$$%%%%%%%%%%%%%%%$$$###############",
"###############$$$%%%%%%%%%%%%%%%%%%$$$#####################$$$%%%%%%%%%%%%%%%$$$###############",
"##################$$$%%%%%%%%%%%%$$$###########################$$$%%%%%%%%%$$$##################",
"##################$$$%%%%%%%%%%%%$$$###########################$$$%%%%%%%%%$$$##################",
"##################$$$%%%%%%%%%%%%$$$###########################$$$%%%%%%%%%$$$##################",
"################################################################################################",
"################################################################################################",
"################################################################################################",
"################################################################################################",
"################################################################################################",
"################################################################################################"
};
