/* XPM */
static char *e1eafb0691c2410bca3067f4ddc38ca9WG75KCPfcjh6TTcy[] = {
/* columns rows colors chars-per-pixel */
"96 96 9 1 ",
"  c black",
". c #252629",
"X c #353434",
"o c #766F46",
"O c #B1A561",
"+ c #E9DA8B",
"@ c #A6BFC9",
"# c #BBCED8",
"$ c #D3E0E7",
/* pixels */
"@@@@@@@@@@@@@@@@@@@@@@@@@@@@@@@@@@@@@@@@@@@@@@@@@@@@@@@@@@@@@@@@@@@@@@@@@@@@@@@@@@@@@@@@@@@@@@@@",
"@@@@@@@@@@@@@@@@@@@@@@@@@@@@@@@@@@@@@@@@@@@@@@@@@@@@@@@@@@@@@@@@@@@@@@@@@@@@@@@@@@@@@@@@@@@@@@@@",
"@@@@@@@@@@@@@@@@@@@@@@@@@@@@@@@@@@@@@@@@@@@@@@@@@@@@@@@@@@@@@@@@@@@@@@@@@@@@@@@@@@@@@@@@@@@@@@@@",
"@@@@@@@@@@@@@@@@@@@@@@@@@@@@@@@@@@@@@@@@@@@@@@@@@@@@@@@@@@@@@@@@@@@@@@@@@@@@@@@@@@@@@@@@@@@@@@@@",
"@@@@@@@@@@@@@@@@@@@@@@@@@@@@@@@@@@@@@@@@@@@@@@@@@@@@@@@@@@@@@@@@@@@@@@@@@@@@@@@@@@@@@@@@@@@@@@@@",
"@@@@@@@@@@@@@@@@@@@@@@@@@@@@@@@@@@@@@@@@@@@@@@@@@@@@@@@@@@@@@@@@@@@@@@@@@@@@@@@@@@@@@@@@@@@@@@@@",
"@@@@@@@@@@@@@@@@@@###$$$$$$$$$$$$###@@@@@@@@@@@@@@@@@@@@@@@@@@@###$$$$$$$$$###@@@@@@@@@@@@@@@@@@",
"@@@@@@@@@@@@@@@@@@###$$$$$$$$$$$$###@@@@@@@@@@@@@@@@@@@@@@@@@@@###$$$$$$$$$###@@@@@@@@@@@@@@@@@@",
"@@@@@@@@@@@@@@@@@@###$$$$$$$$$$$$###@@@@@@@@@@@@@@@@@@@@@@@@@@@###$$$$$$$$$###@@@@@@@@@@@@@@@@@@",
"@@@@@@@@@@@@@@@###$$$$$$$$$$$$$$$$$$###@@@@@@@@@@@@@@@@@@@@@###$$$$$$$$$$$$$$$###@@@@@@@@@@@@@@@",
"@@@@@@@@@@@@@@@###$$$$$$$$$$$$$$$$$$###@@@@@@@@@@@@@@@@@@@@@###$$$$$$$$$$$$$$$###@@@@@@@@@@@@@@@",
"@@@@@@@@@@@@@@@###$$$$$$$$$$$$$$$$$$###@@@@@@@@@@@@@@@@@@@@@###$$$$$$$$$$$$$$$###@@@@@@@@@@@@@@@",
"@@@@@@@@@@@@###$$$$$$$$$$$$$$$$$$$$$$$$###@@@@@@@@@@@@@@@###$$$$$$$$$$$$$$$$$$$$$###@@@@@@@@@@@@",
"@@@@@@@@@@@@###$$$$$$$$$$$$$$$$$$$$$$$$###@@@@@@@@@@@@@@@###$$$$$$$$$$$$$$$$$$$$$###@@@@@@@@@@@@",
"@@@@@@@@@@@@###$$$$$$$$$$$$$$$$$$$$$$$$###@@@@@@@@@@@@@@@###$$$$$$$$$$$$$$$$$$$$$###@@@@@@@@@@@@",
"@@@@@@@@@###$$$$$$$$$$$$$$$$$$$$$$$$$$$$$$###@@@@@@         $$$$$$$$$$$$         $$$###@@@@@@@@@",
"@@@@@@@@@###$$$$$$$$$$$$$$$$$$$$$$$$$$$$$$###@@@@@@         $$$$$$$$$$$$         $$$###@@@@@@@@@",
"@@@@@@@@@###$$$$$$$$$$$$$$$$$$$$$$$$$$$$$$###@@@@@@         $$$$$$$$$$$$         $$$###@@@@@@@@@",
"@@@@@@###$$$$$$$$$$$$$$$   $$$$$$$$$$$$$$$$$$###               $$$$$$               $$$###@@@@@@",
"@@@@@@###$$$$$$$$$$$$$$$   $$$$$$$$$$$$$$$$$$###               $$$$$$               $$$###@@@@@@",
"@@@@@@###$$$$$$$$$$$$$$$   $$$$$$$$$$$$$$$$$$###               $$$$$$               $$$###@@@@@@",
"@@@@@@$$$$$$$$$$$$$$$   ...   $$$$$$$$$$$$$$$$$$               $$$$$$               $$$$$$@@@@@@",
"@@@@@@$$$$$$$$$$$$$$$   ...   $$$$$$$$$$$$$$$$$$               $$$$$$               $$$$$$@@@@@@",
"@@@@@@$$$$$$$$$$$$$$$   ...   $$$$$$$$$$$$$$$$$$               $$$$$$               $$$$$$@@@@@@",
"@@@@@@$$$$$$$$$$$$$$$   ...   $$$$$$$$$$$$$$$$$$                                    $$$$$$@@@@@@",
"@@@@@@$$$$$$$$$$$$$$$   ...   $$$$$$$$$$$$$$$$$$                                    $$$$$$@@@@@@",
"@@@@@@$$$$$$$$$$$$$$$   ...   $$$$$$$$$$$$$$$$$$                                    $$$$$$@@@@@@",
"@@@@@@$$$$$$$$$$$$$$$   ...   $$$$$$$$$$$$$$$$$$                                    $$$$$$@@@@@@",
"@@@@@@$$$$$$$$$$$$$$$   ...   $$$$$$$$$$$$$$$$$$                                    $$$$$$@@@@@@",
"@@@@@@$$$$$$$$$$$$$$$   ...   $$$$$$$$$$$$$$$$$$                                    $$$$$$@@@@@@",
"@@@@@@$$$$$$$$$$$$   ......   $$$$$$$$$$$$$$$                                       $$$$$$@@@@@@",
"@@@@@@$$$$$$$$$$$$   ......   $$$$$$$$$$$$$$$                                       $$$$$$@@@@@@",
"@@@@@@$$$$$$$$$$$$   ......   $$$$$$$$$$$$$$$                                       $$$$$$@@@@@@",
"@@@@@@$$$$$$$$$   ......   $$$$$$$$$$$$$$$$$$                  +++            +++      $$$@@@@@@",
"@@@@@@$$$$$$$$$   ......   $$$$$$$$$$$$$$$$$$                  +++            +++      $$$@@@@@@",
"@@@@@@$$$$$$$$$   ......   $$$$$$$$$$$$$$$$$$                  +++            +++      $$$@@@@@@",
"@@@@@@$$$$$$$$$   ...   $$$$$$$$$$$$$$$$$$$$$                  OOO            OOO      $$$@@@@@@",
"@@@@@@$$$$$$$$$   ...   $$$$$$$$$$$$$$$$$$$$$                  OOO            OOO      $$$@@@@@@",
"@@@@@@$$$$$$$$$   ...   $$$$$$$$$$$$$$$$$$$$$                  OOO            OOO      $$$@@@@@@",
"@@@@@@###$$$$$$   ...   $$$$$$$$$$$$$$$$$$$$$                                          ###@@@@@@",
"@@@@@@###$$$$$$   ...   $$$$$$$$$$$$$$$$$$$$$                                          ###@@@@@@",
"@@@@@@###$$$$$$   ...   $$$$$$$$$$$$$$$$$$$$$                                          ###@@@@@@",
"@@@@@@@@@###$$$   ......   $$$$$$$$$$$$$$$$$$$$$   ...............            ......   @@@@@@@@@",
"@@@@@@@@@###$$$   ......   $$$$$$$$$$$$$$$$$$$$$   ...............            ......   @@@@@@@@@",
"@@@@@@@@@###$$$   ......   $$$$$$$$$$$$$$$$$$$$$   ...............            ......   @@@@@@@@@",
"@@@@@@@@@@@@###   .........                     XXX         .........      ......   @@@@@@@@@@@@",
"@@@@@@@@@@@@###   .........                     XXX         .........      ......   @@@@@@@@@@@@",
"@@@@@@@@@@@@###   .........                     XXX         .........      ......   @@@@@@@@@@@@",
"@@@@@@@@@@@@@@@   ..............................XXXXXX   .....................   @@@@@@@@@@@@@@@",
"@@@@@@@@@@@@@@@   ..............................XXXXXX   .....................   @@@@@@@@@@@@@@@",
"@@@@@@@@@@@@@@@   ..............................XXXXXX   .....................   @@@@@@@@@@@@@@@",
"@@@@@@@@@@@@###$$$   ..............................XXXXXX                     $$$###@@@@@@@@@@@@",
"@@@@@@@@@@@@###$$$   ..............................XXXXXX                     $$$###@@@@@@@@@@@@",
"@@@@@@@@@@@@###$$$   ..............................XXXXXX                     $$$###@@@@@@@@@@@@",
"@@@@@@@@@###$$$$$$   .................................XXXXXXXXXXXXXXXXXXXXX$$$$$$$$$###@@@@@@@@@",
"@@@@@@@@@###$$$$$$   .................................XXXXXXXXXXXXXXXXXXXXX$$$$$$$$$###@@@@@@@@@",
"@@@@@@@@@###$$$$$$   .................................XXXXXXXXXXXXXXXXXXXXX$$$$$$$$$###@@@@@@@@@",
"@@@@@@###$$$$$$$$$$$$      ....................................ooo......   $$$$$$$$$$$$###@@@@@@",
"@@@@@@###$$$$$$$$$$$$      ....................................ooo......   $$$$$$$$$$$$###@@@@@@",
"@@@@@@###$$$$$$$$$$$$      ....................................ooo......   $$$$$$$$$$$$###@@@@@@",
"@@@@@@$$$$$$$$$$$$$$$$$$   .............................................   $$$$$$$$$$$$$$$@@@@@@",
"@@@@@@$$$$$$$$$$$$$$$$$$   .............................................   $$$$$$$$$$$$$$$@@@@@@",
"@@@@@@$$$$$$$$$$$$$$$$$$   .............................................   $$$$$$$$$$$$$$$@@@@@@",
"@@@@@@$$$$$$$$$$$$$$$$$$   .............................................   $$$$$$$$$$$$$$$@@@@@@",
"@@@@@@$$$$$$$$$$$$$$$$$$   .............................................   $$$$$$$$$$$$$$$@@@@@@",
"@@@@@@$$$$$$$$$$$$$$$$$$   .............................................   $$$$$$$$$$$$$$$@@@@@@",
"@@@@@@$$$$$$$$$$$$$$$$$$   ..........................................   $$$$$$$$$$$$$$$$$$@@@@@@",
"@@@@@@$$$$$$$$$$$$$$$$$$   ..........................................   $$$$$$$$$$$$$$$$$$@@@@@@",
"@@@@@@$$$$$$$$$$$$$$$$$$   ..........................................   $$$$$$$$$$$$$$$$$$@@@@@@",
"@@@@@@$$$$$$$$$$$$$$$$$$   .........   .........   ......   .........   $$$$$$$$$$$$$$$$$$@@@@@@",
"@@@@@@$$$$$$$$$$$$$$$$$$   .........   .........   ......   .........   $$$$$$$$$$$$$$$$$$@@@@@@",
"@@@@@@$$$$$$$$$$$$$$$$$$   .........   .........   ......   .........   $$$$$$$$$$$$$$$$$$@@@@@@",
"@@@@@@$$$$$$$$$$$$$$$$$$   .........   .........   ......   .........   $$$$$$$$$$$$$$$$$$@@@@@@",
"@@@@@@$$$$$$$$$$$$$$$$$$   .........   .........   ......   .........   $$$$$$$$$$$$$$$$$$@@@@@@",
"@@@@@@$$$$$$$$$$$$$$$$$$   .........   .........   ......   .........   $$$$$$$$$$$$$$$$$$@@@@@@",
"@@@@@@###$$$$$$$$$$$$$$$   ......      ......      ......      ......   $$$$$$$$$$$$$$$###@@@@@@",
"@@@@@@###$$$$$$$$$$$$$$$   ......      ......      ......      ......   $$$$$$$$$$$$$$$###@@@@@@",
"@@@@@@###$$$$$$$$$$$$$$$   ......      ......      ......      ......   $$$$$$$$$$$$$$$###@@@@@@",
"@@@@@@@@@###$$$$$$$$$$$$$$$         $$$         @@@         $$$      $$$$$$$$$$$$$$$###@@@@@@@@@",
"@@@@@@@@@###$$$$$$$$$$$$$$$         $$$         @@@         $$$      $$$$$$$$$$$$$$$###@@@@@@@@@",
"@@@@@@@@@###$$$$$$$$$$$$$$$         $$$         @@@         $$$      $$$$$$$$$$$$$$$###@@@@@@@@@",
"@@@@@@@@@@@@###$$$$$$$$$$$$$$$$$$$$$$$$###@@@@@@@@@@@@@@@###$$$$$$$$$$$$$$$$$$$$$###@@@@@@@@@@@@",
"@@@@@@@@@@@@###$$$$$$$$$$$$$$$$$$$$$$$$###@@@@@@@@@@@@@@@###$$$$$$$$$$$$$$$$$$$$$###@@@@@@@@@@@@",
"@@@@@@@@@@@@###$$$$$$$$$$$$$$$$$$$$$$$$###@@@@@@@@@@@@@@@###$$$$$$$$$$$$$$$$$$$$$###@@@@@@@@@@@@",
"@@@@@@@@@@@@@@@###$$$$$$$$$$$$$$$$$$###@@@@@@@@@@@@@@@@@@@@@###$$$$$$$$$$$$$$$###@@@@@@@@@@@@@@@",
"@@@@@@@@@@@@@@@###$$$$$$$$$$$$$$$$$$###@@@@@@@@@@@@@@@@@@@@@###$$$$$$$$$$$$$$$###@@@@@@@@@@@@@@@",
"@@@@@@@@@@@@@@@###$$$$$$$$$$$$$$$$$$###@@@@@@@@@@@@@@@@@@@@@###$$$$$$$$$$$$$$$###@@@@@@@@@@@@@@@",
"@@@@@@@@@@@@@@@@@@###$$$$$$$$$$$$###@@@@@@@@@@@@@@@@@@@@@@@@@@@###$$$$$$$$$###@@@@@@@@@@@@@@@@@@",
"@@@@@@@@@@@@@@@@@@###$$$$$$$$$$$$###@@@@@@@@@@@@@@@@@@@@@@@@@@@###$$$$$$$$$###@@@@@@@@@@@@@@@@@@",
"@@@@@@@@@@@@@@@@@@###$$$$$$$$$$$$###@@@@@@@@@@@@@@@@@@@@@@@@@@@###$$$$$$$$$###@@@@@@@@@@@@@@@@@@",
"@@@@@@@@@@@@@@@@@@@@@@@@@@@@@@@@@@@@@@@@@@@@@@@@@@@@@@@@@@@@@@@@@@@@@@@@@@@@@@@@@@@@@@@@@@@@@@@@",
"@@@@@@@@@@@@@@@@@@@@@@@@@@@@@@@@@@@@@@@@@@@@@@@@@@@@@@@@@@@@@@@@@@@@@@@@@@@@@@@@@@@@@@@@@@@@@@@@",
"@@@@@@@@@@@@@@@@@@@@@@@@@@@@@@@@@@@@@@@@@@@@@@@@@@@@@@@@@@@@@@@@@@@@@@@@@@@@@@@@@@@@@@@@@@@@@@@@",
"@@@@@@@@@@@@@@@@@@@@@@@@@@@@@@@@@@@@@@@@@@@@@@@@@@@@@@@@@@@@@@@@@@@@@@@@@@@@@@@@@@@@@@@@@@@@@@@@",
"@@@@@@@@@@@@@@@@@@@@@@@@@@@@@@@@@@@@@@@@@@@@@@@@@@@@@@@@@@@@@@@@@@@@@@@@@@@@@@@@@@@@@@@@@@@@@@@@",
"@@@@@@@@@@@@@@@@@@@@@@@@@@@@@@@@@@@@@@@@@@@@@@@@@@@@@@@@@@@@@@@@@@@@@@@@@@@@@@@@@@@@@@@@@@@@@@@@"
};
