/* XPM */
static char *e0970eef6c5a4278bc164d48430d5562X5STq0pgCeqFgbQb[] = {
/* columns rows colors chars-per-pixel */
"96 96 10 1 ",
"  c #301214",
". c #3E181B",
"X c #996710",
"o c #C26012",
"O c #BB8104",
"+ c #F3B506",
"@ c #F7C844",
"# c #A6BFC9",
"$ c #BBCED8",
"% c #D3E0E7",
/* pixels */
"################################################################################################",
"################################################################################################",
"################################################################################################",
"################################################################################################",
"################################################################################################",
"################################################################################################",
"##################$$$%%%%%%%%%%%%$$$###########################$$$%%%%%%%%%$$$##################",
"##################$$$%%%%%%%%%%%%$$$###########################$$$%%%%%%%%%$$$##################",
"##################$$$%%%%%%%%%%%%$$$###########################$$$%%%%%%%%%$$$##################",
"###############$$$%%%%%%%%%%%%%%%%%%$$$#####################$$$%%%%%%%%%%%%%%%$$$###############",
"###############$$$%%%%%%%%%%%%%%%%%%$$$#####################$$$%%%%%%%%%%%%%%%$$$###############",
"###############$$$%%%%%%%%%%%%%%%%%%$$$#####################$$$%%%%%%%%%%%%%%%$$$###############",
"############$$$%%%%%%%%%%%%%%%%%%%%%%%%$$$###############$$$%%%%%%%%%%%%%%%%%%%%%$$$############",
"############$$$%%%%%%%%%%%%%%%%%%%%%%%%$$$###############$$$%%%%%%%%%%%%%%%%%%%%%$$$############",
"############$$$%%%%%%%%%%%%%%%%%%%%%%%%$$$###############$$$%%%%%%%%%%%%%%%%%%%%%$$$############",
"#########$$$%%%%%%%%%%%%%%%%%%%%%%%%%%%%%%$$$#########$$$%%%%%%%%%%%%%%%%%%%%%%%%%%%$$$#########",
"#########$$$%%%%%%%%%%%%%%%%%%%%%%%%%%%%%%$$$#########$$$%%%%%%%%%%%%%%%%%%%%%%%%%%%$$$#########",
"#########$$$%%%%%%%%%%%%%%%%%%%%%%%%%%%%%%$$$#########$$$%%%%%%%%%%%%%%%%%%%%%%%%%%%$$$#########",
"######$$$%%%%%%%%%%%%%%%%%%%%%%%%%%%%%%%%%%%%$$$###$$$%%%%%%%%%%%%%%%%%%%%%%%%%%%%%%%%%$$$######",
"######$$$%%%%%%%%%%%%%%%%%%%%%%%%%%%%%%%%%%%%$$$###$$$%%%%%%%%%%%%%%%%%%%%%%%%%%%%%%%%%$$$######",
"######$$$%%%%%%%%%%%%%%%%%%%%%%%%%%%%%%%%%%%%$$$###$$$%%%%%%%%%%%%%%%%%%%%%%%%%%%%%%%%%$$$######",
"######%%%%%%%%%%%%%%%%%%%%%%%%%%%%%%%%%%%%%%%%%%$$$%%%%%%%%%%%%%%%%%%%%%%%%%%%%%%%%%%%%%%%######",
"######%%%%%%%%%%%%%%%%%%%%%%%%%%%%%%%%%%%%%%%%%%$$$%%%%%%%%%%%%%%%%%%%%%%%%%%%%%%%%%%%%%%%######",
"######%%%%%%%%%%%%%%%%%%%%%%%%%%%%%%%%%%%%%%%%%%$$$%%%%%%%%%%%%%%%%%%%%%%%%%%%%%%%%%%%%%%%######",
"######%%%%%%%%%%%%%%%%%%%%%%%%%%%%%%%%%%%%%%%%%%%%%%%%%%%%%%%%%%%%%%%%%%%%%%%%%%%%%%%%%%%%######",
"######%%%%%%%%%%%%%%%%%%%%%%%%%%%%%%%%%%%%%%%%%%%%%%%%%%%%%%%%%%%%%%%%%%%%%%%%%%%%%%%%%%%%######",
"######%%%%%%%%%%%%%%%%%%%%%%%%%%%%%%%%%%%%%%%%%%%%%%%%%%%%%%%%%%%%%%%%%%%%%%%%%%%%%%%%%%%%######",
"######%%%%%%%%%%%%%%%%%%%%%%%%%%%%%%%%%%%%%%%%%%%%%%%%%%%%%%%%%%%%%%%%%%%%%%%%%%%%%%%%%%%%######",
"######%%%%%%%%%%%%%%%%%%%%%%%%%%%%%%            %%%%%%%%%%%%%%%%%%%%%%%%%%%%%%%%%%%%%%%%%%######",
"######%%%%%%%%%%%%%%%%%%%%%%%%%%%%%%            %%%%%%%%%%%%%%%%%%%%%%%%%%%%%%%%%%%%%%%%%%######",
"######%%%%%%%%%%%%%%%%%%%%%%%%%%%%%%            %%%%%%%%%%%%%%%%%%%%%%%%%%%%%%%%%%%%%%%%%%######",
"######%%%%%%%%%%%%%%%%%%%%%%%%%%%%%%            %%%%%%%%%%%%%%%%%%%%%%%%%%%%%%%%%%%%%%%%%%######",
"######%%%%%%%%%%%%%%%%%%%%%%%%%%    ++++@@@@@@@@    %%%%%%%%%%%%%%%%%%%%%%%%%%%%%%%%%%%%%%######",
"######%%%%%%%%%%%%%%%%%%%%%%%%%%    ++++@@@@@@@@    %%%%%%%%%%%%%%%%%%%%%%%%%%%%%%%%%%%%%%######",
"######%%%%%%%%%%%%%%%%%%%%%%%%%%    ++++@@@@@@@@    %%%%%%%%%%%%%%%%%%%%%%%%%%%%%%%%%%%%%%######",
"######%%%%%%%%%%%%%%%%%%%%%%%%%%    ++++@@@@@@@@    %%%%%%%%%%%%%%%%%%%%%%%%%%%%%%%%%%%%%%######",
"######%%%%%%%%%%%%%%%%%%%%%%    ++++++++++++++++@@@@    %%%%%%%%%%%%%%%%%%%%%%%%%%%%%%%%%%######",
"######%%%%%%%%%%%%%%%%%%%%%%    ++++++++++++++++@@@@    %%%%%%%%%%%%%%%%%%%%%%%%%%%%%%%%%%######",
"######%%%%%%%%%%%%%%%%%%%%%%    ++++++++++++++++@@@@    %%%%%%%%%%%%%%%%%%%%%%%%%%%%%%%%%%######",
"######$$$%%%%%%%%%%%%%%%%%%%    ++++++++++++++++@@@@    %%%%%%%%%%%%%%%%%%%%%%%%%%%%%%%$$$######",
"######$$$%%%%%%%%%%%%%%%%%%%    ++++....++++++++++++    %%%%%%%%%%%%%%%%%%%%%%%%%%%%%%%$$$######",
"######$$$%%%%%%%%%%%%%%%%%%%    ++++....++++++++++++    %%%%%%%%%%%%%%%%%%%%%%%%%%%%%%%$$$######",
"#########$$$%%%%%%%%%%%%%%%%    ++++....++++++++++++    %%%%%%%%%%%%%%%%%%%%%%%%%%%%$$$#########",
"#########$$$%%%%%%%%%%%%%%%%    ++++....++++++++++++    %%%%%%%%%%%%%%%%%%%%%%%%%%%%$$$#########",
"#########$$$%%%%%%%%%%%%oooo    ++++++++++++++++XXXX                %%%%%%%%%%%%%%%%$$$#########",
"############$$$%%%%%%%%%oooo    ++++++++++++++++XXXX                %%%%%%%%%%%%%$$$############",
"############$$$%%%%%%%%%oooo    ++++++++++++++++XXXX                %%%%%%%%%%%%%$$$############",
"############$$$%%%%%%%%%oooo    ++++++++++++++++XXXX                %%%%%%%%%%%%%$$$############",
"###############$$$%%%%%%%%%%%%%%    XXXX++++++++++++@@@@@@@@@@@@    %%%%%%%%%%$$$###############",
"###############$$$%%%%%%%%%%%%%%    XXXX++++++++++++@@@@@@@@@@@@    %%%%%%%%%%$$$###############",
"###############$$$%%%%%%%%%%%%%%    XXXX++++++++++++@@@@@@@@@@@@    %%%%%%%%%%$$$###############",
"############$$$%%%%%%%%%%%%%%%%%    XXXX++++++++++++@@@@@@@@@@@@    %%%%%%%%%%%%%$$$############",
"############$$$%%%%%%%%%%%%%%%%%%%%%    OOOOOOOOOOOOOOOOOOOOOOOO    %%%%%%%%%%%%%$$$############",
"############$$$%%%%%%%%%%%%%%%%%%%%%    OOOOOOOOOOOOOOOOOOOOOOOO    %%%%%%%%%%%%%$$$############",
"#########$$$%%%%%%%%%%%%%%%%%%%%%%%%    OOOOOOOOOOOOOOOOOOOOOOOO    %%%%%%%%%%%%%%%%$$$#########",
"#########$$$%%%%%%%%%%%%%%%%%%%%%%%%    OOOOOOOOOOOOOOOOOOOOOOOO    %%%%%%%%%%%%%%%%$$$#########",
"#########$$$%%%%%%%%%%%%%%%%%%%%%%%%    OOOOOOOOOOOOOOOOOOOO    %%%%%%%%%%%%%%%%%%%%$$$#########",
"######$$$%%%%%%%%%%%%%%%%%%%%%%%%%%%    OOOOOOOOOOOOOOOOOOOO    %%%%%%%%%%%%%%%%%%%%%%%$$$######",
"######$$$%%%%%%%%%%%%%%%%%%%%%%%%%%%    OOOOOOOOOOOOOOOOOOOO    %%%%%%%%%%%%%%%%%%%%%%%$$$######",
"######$$$%%%%%%%%%%%%%%%%%%%%%%%%%%%    OOOOOOOOOOOOOOOOOOOO    %%%%%%%%%%%%%%%%%%%%%%%$$$######",
"######%%%%%%%%%%%%%%%%%%%%%%%%%%%%%%%%%%                    %%%%%%%%%%%%%%%%%%%%%%%%%%%%%%######",
"######%%%%%%%%%%%%%%%%%%%%%%%%%%%%%%%%%%                    %%%%%%%%%%%%%%%%%%%%%%%%%%%%%%######",
"######%%%%%%%%%%%%%%%%%%%%%%%%%%%%%%%%%%                    %%%%%%%%%%%%%%%%%%%%%%%%%%%%%%######",
"######%%%%%%%%%%%%%%%%%%%%%%%%%%%%%%%%%%                    %%%%%%%%%%%%%%%%%%%%%%%%%%%%%%######",
"######%%%%%%%%%%%%%%%%%%%%%%%%%%%%%%%%%%%%%%%%%%%%%%%%%%%%%%%%%%%%%%%%%%%%%%%%%%%%%%%%%%%%######",
"######%%%%%%%%%%%%%%%%%%%%%%%%%%%%%%%%%%%%%%%%%%%%%%%%%%%%%%%%%%%%%%%%%%%%%%%%%%%%%%%%%%%%######",
"######%%%%%%%%%%%%%%%%%%%%%%%%%%%%%%%%%%%%%%%%%%%%%%%%%%%%%%%%%%%%%%%%%%%%%%%%%%%%%%%%%%%%######",
"######%%%%%%%%%%%%%%%%%%%%%%%%%%%%%%%%%%%%%%%%%%%%%%%%%%%%%%%%%%%%%%%%%%%%%%%%%%%%%%%%%%%%######",
"######%%%%%%%%%%%%%%%%%%%%%%%%%%%%%%%%%%%%%%%%%%%%%%%%%%%%%%%%%%%%%%%%%%%%%%%%%%%%%%%%%%%%######",
"######%%%%%%%%%%%%%%%%%%%%%%%%%%%%%%%%%%%%%%%%%%%%%%%%%%%%%%%%%%%%%%%%%%%%%%%%%%%%%%%%%%%%######",
"######%%%%%%%%%%%%%%%%%%%%%%%%%%%%%%%%%%%%%%%%%%%%%%%%%%%%%%%%%%%%%%%%%%%%%%%%%%%%%%%%%%%%######",
"######%%%%%%%%%%%%%%%%%%%%%%%%%%%%%%%%%%%%%%%%%%%%%%%%%%%%%%%%%%%%%%%%%%%%%%%%%%%%%%%%%%%%######",
"######%%%%%%%%%%%%%%%%%%%%%%%%%%%%%%%%%%%%%%%%%%$$$%%%%%%%%%%%%%%%%%%%%%%%%%%%%%%%%%%%%%%%######",
"######%%%%%%%%%%%%%%%%%%%%%%%%%%%%%%%%%%%%%%%%%%$$$%%%%%%%%%%%%%%%%%%%%%%%%%%%%%%%%%%%%%%%######",
"######%%%%%%%%%%%%%%%%%%%%%%%%%%%%%%%%%%%%%%%%%%$$$%%%%%%%%%%%%%%%%%%%%%%%%%%%%%%%%%%%%%%%######",
"######$$$%%%%%%%%%%%%%%%%%%%%%%%%%%%%%%%%%%%%$$$###$$$%%%%%%%%%%%%%%%%%%%%%%%%%%%%%%%%%$$$######",
"######$$$%%%%%%%%%%%%%%%%%%%%%%%%%%%%%%%%%%%%$$$###$$$%%%%%%%%%%%%%%%%%%%%%%%%%%%%%%%%%$$$######",
"######$$$%%%%%%%%%%%%%%%%%%%%%%%%%%%%%%%%%%%%$$$###$$$%%%%%%%%%%%%%%%%%%%%%%%%%%%%%%%%%$$$######",
"#########$$$%%%%%%%%%%%%%%%%%%%%%%%%%%%%%%$$$#########$$$%%%%%%%%%%%%%%%%%%%%%%%%%%%$$$#########",
"#########$$$%%%%%%%%%%%%%%%%%%%%%%%%%%%%%%$$$#########$$$%%%%%%%%%%%%%%%%%%%%%%%%%%%$$$#########",
"#########$$$%%%%%%%%%%%%%%%%%%%%%%%%%%%%%%$$$#########$$$%%%%%%%%%%%%%%%%%%%%%%%%%%%$$$#########",
"############$$$%%%%%%%%%%%%%%%%%%%%%%%%$$$###############$$$%%%%%%%%%%%%%%%%%%%%%$$$############",
"############$$$%%%%%%%%%%%%%%%%%%%%%%%%$$$###############$$$%%%%%%%%%%%%%%%%%%%%%$$$############",
"############$$$%%%%%%%%%%%%%%%%%%%%%%%%$$$###############$$$%%%%%%%%%%%%%%%%%%%%%$$$############",
"###############$$$%%%%%%%%%%%%%%%%%%$$$#####################$$$%%%%%%%%%%%%%%%$$$###############",
"###############$$$%%%%%%%%%%%%%%%%%%$$$#####################$$$%%%%%%%%%%%%%%%$$$###############",
"###############$$$%%%%%%%%%%%%%%%%%%$$$#####################$$$%%%%%%%%%%%%%%%$$$###############",
"##################$$$%%%%%%%%%%%%$$$###########################$$$%%%%%%%%%$$$##################",
"##################$$$%%%%%%%%%%%%$$$###########################$$$%%%%%%%%%$$$##################",
"##################$$$%%%%%%%%%%%%$$$###########################$$$%%%%%%%%%$$$##################",
"################################################################################################",
"################################################################################################",
"################################################################################################",
"################################################################################################",
"################################################################################################",
"################################################################################################"
};
