/* XPM */
static const char *tile_img[] = {
/* columns rows colors chars-per-pixel */
"96 96 50 1 ",
"  c #A5BEC8",
". c #A5BFC9",
"X c #A6BFC9",
"o c #A7C0CA",
"O c #A8C0CA",
"+ c #A8C1CA",
"@ c #A8C1CB",
"# c #A9C1CB",
"$ c #A9C1CC",
"% c #AAC2CC",
"& c #ACC4CE",
"* c #ADC4CE",
"= c #AEC4CF",
"- c #AEC5CF",
"; c #AFC5CF",
": c #AFC6CF",
"> c #B2C8D1",
", c #B3C8D2",
"< c #B4C9D2",
"1 c #B4C9D3",
"2 c #B5CAD3",
"3 c #B6CBD4",
"4 c #B9CDD6",
"5 c #BACED7",
"6 c #BBCED8",
"7 c #BCCFD8",
"8 c #BED0DA",
"9 c #BFD1DA",
"0 c #C2D3DC",
"q c #C3D4DD",
"w c #C4D5DD",
"e c #C5D6DE",
"r c #C8D8E0",
"t c #CAD9E1",
"y c #CBDAE2",
"u c #CDDBE3",
"i c #CEDCE4",
"p c #CFDDE5",
"a c #D0DDE5",
"s c #D0DEE5",
"d c #D1DEE5",
"f c #D1DEE6",
"g c #D1DFE6",
"h c #D2DFE6",
"j c #D3E0E7",
"k c #D4E0E7",
"l c #D4E1E7",
"z c #D4E1E8",
"x c #D5E1E8",
"c c #D5E2E8",
/* pixels */
"XXXXXXXXXXXXXXXXXXXXXXXXXXXXXXXXXXXXXXXXXXXXXXXXXXXXXXXXXXXXXXXXXXXXXXXXXXXXXXXXXXXXXXXXXXXXXXXX",
"XXXXXXXXXXXXXXXXXXXXXXXXXXXXXXXXXXXXXXXXXXXXXXXXXXXXXXXXXXXXXXXXXXXXXXXXXXXXXXXXXXXXXXXXXXXXXXXX",
"XXXXXXXXXXXXXXXXXXXXXXXXXXXXXXXXXXXXXXXXXXXXXXXXXXXXXXXXXXXXXXXXXXXXXXXXXXXXXXXXXXXXXXXXXXXXXXXX",
"XXXXXXXXXXXXXXXXXXXXXXXXXXXXXXXXXXXXXXXXXXXXXXXXXXXXXXXXXXXXXXXXXXXXXXXXXXXXXXXXXXXXXXXXXXXXXXXX",
"XXXXXXXXXXXXXXXXXXoo##############oXXXXXXXXXXXXXXXXXXXXXXXXXXXXoo##########oooXXXXXXXXXXXXXXXXXX",
"XXXXXXXXXXXXXXXXXo%&->1111111111>-&%oXXXXXXXXXXXXXXXXXXXXXXXXXo%-->1111111>--%oXXXXXXXXXXXXXXXXX",
"XXXXXXXXXXXXXXXXX#-149qwwwwwwwww941-%XXXXXXXXXXXXXXXXXXXXXXXXX#-149wwwwwwq941-#XXXXXXXXXXXXXXXXX",
"XXXXXXXXXXXXXXXX#-16qyphhhhhhhhpyq61-#XXXXXXXXXXXXXXXXXXXXXXX#-16qyphhhhhpyq61-#XXXXXXXXXXXXXXXX",
"XXXXXXXXXXXXXXo#-16qypjxxxxxxxxkpyq7>-#oXXXXXXXXXXXXXXXXXXXo#-16qypjxxxxxjpyq61-#oXXXXXXXXXXXXXX",
"XXXXXXXXXXXXXX#-16wyphjxxxxxxxxkhpyw61-#XXXXXXXXXXXXXXXXXXX#-16wyphkxxxxxjhpyw71-#XXXXXXXXXXXXXX",
"XXXXXXXXXXXXX#-16qyhjjjjjjjjjjjjjjhyq61-#XXXXXXXXXXXXXXXXX#-16qyhjjjjjjjjjjjhyq61-#XXXXXXXXXXXXX",
"XXXXXXXXXXXo#-16qypjxkjjjjjjjjjjkxjpyq6>-#oXXXXXXXXXXXXXo#-17qypjxkjjjjjjjjxjpyq7>-#oXXXXXXXXXXX",
"XXXXXXXXXXX#-17wyphjkjjjjjjjjjjjjkjhpyw61-#XXXXXXXXXXXXX#-16wyphjkjjjjjjjjjkjhpyw71-#XXXXXXXXXXX",
"XXXXXXXXXX#-16qyhjjjjjjjjjjjjjjjjjjjjhyq61-#XXXXXXXXXXX#-16qyhjjjjjjjjjjjjjjjjjhyq61-#XXXXXXXXXX",
"XXXXXXXXo#-17qypjxkjjjjjjjjjjjjjjjjkxjpyq71-#oXXXXXXXo#-16qypjxkjjjjjjjjjjjjjkxjpyq71-#oXXXXXXXX",
"XXXXXXXX#-17wyphjkjjjjjjjjjjjjjjjjjjkjhpyw71-#XXXXXXX#-16wyphjkjjjjjjjjjjjjjjjkjhpyw61-#XXXXXXXX",
"XXXXXXX#-16qyhjjjjjjjjjjjjjjjjjjjjjjjjjjhyq61-#XXXXX#-16qyhjjjjjjjjjjjjjjjjjjjjjjjhyq61-#XXXXXXX",
"XXXXXo#->6qypjxkjjjjjjjjjjjjjjjjjjjjjjkxjpyq61-#oXo#-16qypjxkjjjjjjjjjjjjjjjjjjjjxjpyq71-#oXXXXX",
"XXXXo%-16wyphjkjjjjjjjjjjjjjjjjjjjjjjjjkjhpyw71-#o#-17wyphjkjjjjjjjjjjjjjjjjjjjjjkjhpyw61-%XXXXX",
"XXXXo-16qyhjjjjjjjjjjjjjjjjjjjjjjjjjjjjjjjjhyq6>-#->6qyhjjjjjjjjjjjjjjjjjjjjjjjjjjjjjhyq61&oXXXX",
"XXXX#-4qypjxkjjjjjjjjjjjjjjjjjjjjjjjjjjjjkxjpyq4>->4qypjxkjjjjjjjjjjjjjjjjjjjjjjjjjkxjpyq4-#XXXX",
"XXXX#>9yhhjkjjjjjjjjjjjjjjjjjjjjjjjjjjjjjjjjhpyq434qyphjkjjjjjjjjjjjjjjjjjjjjjjjjjjjkjhpy9>#XXXX",
"XXXX#1qpkkjjjjjjjjjjjjjjjjjjjjjjjjjjjjjjjjjjjjhy090yhjjjjjjjjjjjjjjjjjjjjjjjjjjjjjjjjjkjpq1#XXXX",
"XXXX#1whxxjjjjjjjjjjjjjjjjjjjjjjjjjjjjjjjjjjkxjpywypjxjjjjjjjjjjjjjjjjjjjjjjjjjjjjjjjjxxhw1#XXXX",
"XXXX#1whxxjjjjjjjjjjjjjjjjjjjjjjjjjjjjjjjjjjjkjhpuphjkjjjjjjjjjjjjjjjjjjjjjjjjjjjjjjjjxxhw1#XXXX",
"XXXX#1whxxjjjjjjjjjjjjjjjjjjjjjjjjjjjjjjjjjjjjjjhhhjjjjjjjjjjjjjjjjjjjjjjjjjjjjjjjjjjjxxhw1#XXXX",
"XXXX#1whxxjjjjjjjjjjjjjjjjjjjjjjjjjjjjjjjjjjjjjjkkkjjjjjjjjjjjjjjjjjjjjjjjjjjjjjjjjjjjxxhw1#XXXX",
"XXXX#1whxxjjjjjjjjjjjjjjjjjjjjjjjjjjjjjjjjjjjjjjjjjjjjjjjjjjjjjjjjjjjjjjjjjjjjjjjjjjjjxxhw1#XXXX",
"XXXX#1whxxjjjjjjjjjjjjjjjjjjjjjjjjjjjjjjjjjjjjjjjjjjjjjjjjjjjjjjjjjjjjjjjjjjjjjjjjjjjjxxhw1#XXXX",
"XXXX#1whxxjjjjjjjjjjjjjjjjjjjjjjjjjjjjjjjjjjjjjjjjjjjjjjjjjjjjjjjjjjjjjjjjjjjjjjjjjjjjxxhw1#XXXX",
"XXXX#1whxxjjjjjjjjjjjjjjjjjjjjjjjjjjjjjjjjjjjjjjjjjjjjjjjjjjjjjjjjjjjjjjjjjjjjjjjjjjjjxxhw1#XXXX",
"XXXX#1whxxjjjjjjjjjjjjjjjjjjjjjjjjjjjjjjjjjjjjjjjjjjjjjjjjjjjjjjjjjjjjjjjjjjjjjjjjjjjjxxhw1#XXXX",
"XXXX#1whxxjjjjjjjjjjjjjjjjjjjjjjjjjjjjjjjjjjjjjjjjjjjjjjjjjjjjjjjjjjjjjjjjjjjjjjjjjjjjxxhw1#XXXX",
"XXXX#1whxxjjjjjjjjjjjjjjjjjjjjjjjjjjjjjjjjjjjjjjjjjjjjjjjjjjjjjjjjjjjjjjjjjjjjjjjjjjjjxxhw1#XXXX",
"XXXX#1whxxjjjjjjjjjjjjjjjjjjjjjjjjjjjjjjjjjjjjjjjjjjjjjjjjjjjjjjjjjjjjjjjjjjjjjjjjjjjjxxhw1#XXXX",
"XXXX#1whxxjjjjjjjjjjjjjjjjjjjjjjjjjjjjjjjjjjjjjjjjjjjjjjjjjjjjjjjjjjjjjjjjjjjjjjjjjjjjxxhw1#XXXX",
"XXXX#1whxxjjjjjjjjjjjjjjjjjjjjjjjjjjjjjjjjjjjjjjjjjjjjjjjjjjjjjjjjjjjjjjjjjjjjjjjjjjjjxxhw1#XXXX",
"XXXX#1qpjjjjjjjjjjjjjjjjjjjjjjjjjjjjjjjjjjjjjjjjjjjjjjjjjjjjjjjjjjjjjjjjjjjjjjjjjjjjjjjjpq1#XXXX",
"XXXX#>9yphjjjjjjjjjjjjjjjjjjjjjjjjjjjjjjjjjjjjjjjjjjjjjjjjjjjjjjjjjjjjjjjjjjjjjjjjjjkjhpy9>#XXXX",
"XXXX#-4qypjxjjjjjjjjjjjjjjjjjjjjjjjjjjjjjjjjjjjjjjjjjjjjjjjjjjjjjjjjjjjjjjjjjjjjjjjkxjpyq4-#XXXX",
"XXXXo&>6qyhjjjjjjjjjjjjjjjjjjjjjjjjjjjjjjjjjjjjjjjjjjjjjjjjjjjjjjjjjjjjjjjjjjjjjjjjjjhyq61&oXXXX",
"XXXXX%-17wyphjkjjjjjjjjjjjjjjjjjjjjjjjjjjjjjjjjjjjjjjjjjjjjjjjjjjjjjjjjjjjjjjjjjjkjhpyw71-%XXXXX",
"XXXXXo#-17qypjxkjjjjjjjjjjjjjjjjjjjjjjjjjjjjjjjjjjjjjjjjjjjjjjjjjjjjjjjjjjjjjjjjkxjpyq6>-%oXXXXX",
"XXXXXXX#-16qyhjjjjjjjjjjjjjjjjjjjjjjjjjjjjjjjjjjjjjjjjjjjjjjjjjjjjjjjjjjjjjjjjjjjjhyq61-#XXXXXXX",
"XXXXXXXX#-16wyphjkjjjjjjjjjjjjjjjjjjjjjjjjjjjjjjjjjjjjjjjjjjjjjjjjjjjjjjjjjjjjjjhpyw71-#XXXXXXXX",
"XXXXXXXXo#-16qypjxkjjjjjjjjjjjjjjjjjjjjjjjjjjjjjjjjjjjjjjjjjjjjjjjjjjjjjjjjjjjxjpyq61-#oXXXXXXXX",
"XXXXXXXXXX#-16qyhjjjjjjjjjjjjjjjjjjjjjjjjjjjjjjjjjjjjjjjjjjjjjjjjjjjjjjjjjjjjjjhyq61-#XXXXXXXXXX",
"XXXXXXXXXXX#->4qyphjjjjjjjjjjjjjjjjjjjjjjjjjjjjjjjjjjjjjjjjjjjjjjjjjjjjjjjjjjhpyq4>-#XXXXXXXXXXX",
"XXXXXXXXXXXo#->40yphjjjjjjjjjjjjjjjjjjjjjjjjjjjjjjjjjjjjjjjjjjjjjjjjjjjjjjjkhpy04>-#oXXXXXXXXXXX",
"XXXXXXXXXXXXo#-39wuhjjjjjjjjjjjjjjjjjjjjjjjjjjjjjjjjjjjjjjjjjjjjjjjjjjjjjjjkhuw93-#oXXXXXXXXXXXX",
"XXXXXXXXXXXo#->40yphjjjjjjjjjjjjjjjjjjjjjjjjjjjjjjjjjjjjjjjjjjjjjjjjjjjjjjjkhpy04>-#oXXXXXXXXXXX",
"XXXXXXXXXXX#-16qyphjjjjjjjjjjjjjjjjjjjjjjjjjjjjjjjjjjjjjjjjjjjjjjjjjjjjjjjjjjhpyq6>-#XXXXXXXXXXX",
"XXXXXXXXXX#-16qyhjjjjjjjjjjjjjjjjjjjjjjjjjjjjjjjjjjjjjjjjjjjjjjjjjjjjjjjjjjjjjjhyq61-#XXXXXXXXXX",
"XXXXXXXXo#-17qypjxkjjjjjjjjjjjjjjjjjjjjjjjjjjjjjjjjjjjjjjjjjjjjjjjjjjjjjjjjjjkxjpyq71-#oXXXXXXXX",
"XXXXXXXX#-17wyphjkjjjjjjjjjjjjjjjjjjjjjjjjjjjjjjjjjjjjjjjjjjjjjjjjjjjjjjjjjjjjkjhpyw61-#XXXXXXXX",
"XXXXXXX#-16qyhjjjjjjjjjjjjjjjjjjjjjjjjjjjjjjjjjjjjjjjjjjjjjjjjjjjjjjjjjjjjjjjjjjjjhyq61-#XXXXXXX",
"XXXXXo#-16qypjxjjjjjjjjjjjjjjjjjjjjjjjjjjjjjjjjjjjjjjjjjjjjjjjjjjjjjjjjjjjjjjjjjkxjpyq71-#oXXXXX",
"XXXXo%-16wyphjjjjjjjjjjjjjjjjjjjjjjjjjjjjjjjjjjjjjjjjjjjjjjjjjjjjjjjjjjjjjjjjjjjjkjhpyw71-%XXXXX",
"XXXXo-16qyhjjjjjjjjjjjjjjjjjjjjjjjjjjjjjjjjjjjjjjjjjjjjjjjjjjjjjjjjjjjjjjjjjjjjjjjjjjhyq61-oXXXX",
"XXXX#-4qypjxjjjjjjjjjjjjjjjjjjjjjjjjjjjjjjjjjjjjjjjjjjjjjjjjjjjjjjjjjjjjjjjjjjjjjjjkxjpyq4-#XXXX",
"XXXX#>9yhhjkjjjjjjjjjjjjjjjjjjjjjjjjjjjjjjjjjjjjjjjjjjjjjjjjjjjjjjjjjjjjjjjjjjjjjjjjjjhpy9>#XXXX",
"XXXX#1qpkkjjjjjjjjjjjjjjjjjjjjjjjjjjjjjjjjjjjjjjjjjjjjjjjjjjjjjjjjjjjjjjjjjjjjjjjjjjjjjjpq1#XXXX",
"XXXX#1whxxjjjjjjjjjjjjjjjjjjjjjjjjjjjjjjjjjjjjjjjjjjjjjjjjjjjjjjjjjjjjjjjjjjjjjjjjjjjjxxhw1#XXXX",
"XXXX#1whxxjjjjjjjjjjjjjjjjjjjjjjjjjjjjjjjjjjjjjjjjjjjjjjjjjjjjjjjjjjjjjjjjjjjjjjjjjjjjxxhw1#XXXX",
"XXXX#1whxxjjjjjjjjjjjjjjjjjjjjjjjjjjjjjjjjjjjjjjjjjjjjjjjjjjjjjjjjjjjjjjjjjjjjjjjjjjjjxxhw1#XXXX",
"XXXX#1whxxjjjjjjjjjjjjjjjjjjjjjjjjjjjjjjjjjjjjjjjjjjjjjjjjjjjjjjjjjjjjjjjjjjjjjjjjjjjjxxhw1#XXXX",
"XXXX#1whxxjjjjjjjjjjjjjjjjjjjjjjjjjjjjjjjjjjjjjjjjjjjjjjjjjjjjjjjjjjjjjjjjjjjjjjjjjjjjxxhw1#XXXX",
"XXXX#1whxxjjjjjjjjjjjjjjjjjjjjjjjjjjjjjjjjjjjjjjjjjjjjjjjjjjjjjjjjjjjjjjjjjjjjjjjjjjjjxxhw1#XXXX",
"XXXX#1whxxjjjjjjjjjjjjjjjjjjjjjjjjjjjjjjjjjjjjjjjjjjjjjjjjjjjjjjjjjjjjjjjjjjjjjjjjjjjjxxhw1#XXXX",
"XXXX#1whxxjjjjjjjjjjjjjjjjjjjjjjjjjjjjjjjjjjjjjjkkkjjjjjjjjjjjjjjjjjjjjjjjjjjjjjjjjjjjxxhw1#XXXX",
"XXXX#1whxxjjjjjjjjjjjjjjjjjjjjjjjjjjjjjjjjjjjjjjhhhjjjjjjjjjjjjjjjjjjjjjjjjjjjjjjjjjjjxxhw1#XXXX",
"XXXX#1whxxjjjjjjjjjjjjjjjjjjjjjjjjjjjjjjjjjjjkjhpuphjkjjjjjjjjjjjjjjjjjjjjjjjjjjjjjjjjxxhw1#XXXX",
"XXXX#1whxxjjjjjjjjjjjjjjjjjjjjjjjjjjjjjjjjjjkxjpywypjxjjjjjjjjjjjjjjjjjjjjjjjjjjjjjjjjxxhw1#XXXX",
"XXXX#1qpjkjjjjjjjjjjjjjjjjjjjjjjjjjjjjjjjjjjjjhy090yhjjjjjjjjjjjjjjjjjjjjjjjjjjjjjjjjjjjpq1#XXXX",
"XXXX#>9yphjkjjjjjjjjjjjjjjjjjjjjjjjjjjjjjjjjhpyq434qyphjkjjjjjjjjjjjjjjjjjjjjjjjjjjjkjhpy9>#XXXX",
"XXXX#-4qypjxkjjjjjjjjjjjjjjjjjjjjjjjjjjjjkxjpyq4>->4qypjxkjjjjjjjjjjjjjjjjjjjjjjjjjkxjpyq4-oXXXX",
"XXXXo&16qyhjjjjjjjjjjjjjjjjjjjjjjjjjjjjjjjjhyq6>&#-16qyhjjjjjjjjjjjjjjjjjjjjjjjjjjjjjhyq61&oXXXX",
"XXXXX%-16wyphjkjjjjjjjjjjjjjjjjjjjjjjjjjjhpyw71-#X#-17wyphjkjjjjjjjjjjjjjjjjjjjjjkjhpyw61-%XXXXX",
"XXXXXo#-17qypjxjjjjjjjjjjjjjjjjjjjjjjjkxjpyq71-#oXo#-17qypjxjjjjjjjjjjjjjjjjjjjjkxjpyq71-#oXXXXX",
"XXXXXXX#-16qyhjjjjjjjjjjjjjjjjjjjjjjjjjjhyq61-#XXXXX#-16qyhjjjjjjjjjjjjjjjjjjjjjjjhyq61-#XXXXXXX",
"XXXXXXXX#-16wyphjkjjjjjjjjjjjjjjjjjjkjhpyw61-#XXXXXXX#-16wyphjkjjjjjjjjjjjjjjjkjhpyw61-#XXXXXXXX",
"XXXXXXXXo#-17qypjxkjjjjjjjjjjjjjjjjkxjpyq6>-#oXXXXXXXo#->6qypjxkjjjjjjjjjjjjjjxjpyq61-#oXXXXXXXX",
"XXXXXXXXXX#-16qyhjjjjjjjjjjjjjjjjjjjjhyq61-#XXXXXXXXXXX#-16qyhjjjjjjjjjjjjjjjjjhyq61-#XXXXXXXXXX",
"XXXXXXXXXXX#-17wyphjkjjjjjjjjjjjjkjhpyw71-#XXXXXXXXXXXXX#-17wyphjkjjjjjjjjjkjhpyw61-#XXXXXXXXXXX",
"XXXXXXXXXXXo#->7qypjxjjjjjjjjjjjjxjpyq61-#oXXXXXXXXXXXXXo#-17qypjxkjjjjjjjkxjpyq61-#oXXXXXXXXXXX",
"XXXXXXXXXXXXX#-16qyhjjjjjjjjjjjjjjhyq61-#XXXXXXXXXXXXXXXXX#-16qyhjjjjjjjjjjjhyq61-#XXXXXXXXXXXXX",
"XXXXXXXXXXXXXX#-17wyphjxxxxxxxxkhpyw61-#XXXXXXXXXXXXXXXXXXX#-17wyphkxxxxxkhpyw71-#XXXXXXXXXXXXXX",
"XXXXXXXXXXXXXXo#-16qypjxxxxxxxxkpyq71-#oXXXXXXXXXXXXXXXXXXXo#-16qypkxxxxxkpyq61-#oXXXXXXXXXXXXXX",
"XXXXXXXXXXXXXXXX#-16qyphhhhhhhhpyq61-#XXXXXXXXXXXXXXXXXXXXXXX#-16qyphhhhhpyq61-#XXXXXXXXXXXXXXXX",
"XXXXXXXXXXXXXXXXX#-149qwwwwwwwwq941-#XXXXXXXXXXXXXXXXXXXXXXXXX#-149qwwwwwq94>-#XXXXXXXXXXXXXXXXX",
"XXXXXXXXXXXXXXXXXo%-->1111111111>-&%oXXXXXXXXXXXXXXXXXXXXXXXXXo%-->1111111>--%oXXXXXXXXXXXXXXXXX",
"XXXXXXXXXXXXXXXXXXooo#############oXXXXXXXXXXXXXXXXXXXXXXXXXXXXXo###########ooXXXXXXXXXXXXXXXXXX",
"XXXXXXXXXXXXXXXXXXXXXXXXXXXXXXXXXXXXXXXXXXXXXXXXXXXXXXXXXXXXXXXXXXXXXXXXXXXXXXXXXXXXXXXXXXXXXXXX",
"XXXXXXXXXXXXXXXXXXXXXXXXXXXXXXXXXXXXXXXXXXXXXXXXXXXXXXXXXXXXXXXXXXXXXXXXXXXXXXXXXXXXXXXXXXXXXXXX",
"XXXXXXXXXXXXXXXXXXXXXXXXXXXXXXXXXXXXXXXXXXXXXXXXXXXXXXXXXXXXXXXXXXXXXXXXXXXXXXXXXXXXXXXXXXXXXXXX",
"XXXXXXXXXXXXXXXXXXXXXXXXXXXXXXXXXXXXXXXXXXXXXXXXXXXXXXXXXXXXXXXXXXXXXXXXXXXXXXXXXXXXXXXXXXXXXXXX"
};
