/* XPM */
static const char *wall_img[] = {
/* columns rows colors chars-per-pixel */
"96 96 56 1 ",
"  c #A5BEC8",
". c #A5BFC9",
"X c #A6BFC9",
"o c #A7BFC9",
"O c #A7C0CA",
"+ c #A8C0CA",
"@ c #A8C1CB",
"# c #A9C1CB",
"$ c #AAC2CC",
"% c #ABC3CD",
"& c #ACC3CD",
"* c #ACC3CE",
"= c #ADC3CE",
"- c #ADC4CE",
"; c #AEC4CE",
": c #AEC5CF",
"> c #AFC6D0",
", c #B2C7D2",
"< c #B3C8D2",
"1 c #B3C9D2",
"2 c #B3C9D3",
"3 c #B4C9D3",
"4 c #B5CAD4",
"5 c #B9CDD6",
"6 c #BACED8",
"7 c #BBCED8",
"8 c #BCCED8",
"9 c #BCCFD8",
"0 c #BCCFD9",
"q c #BDD0D9",
"w c #C1D2DC",
"e c #C2D4DD",
"r c #C3D4DD",
"t c #C4D4DD",
"y c #C4D5DD",
"u c #C4D5DE",
"i c #C5D6DE",
"p c #C9D8E1",
"a c #C9D9E1",
"s c #CAD9E1",
"d c #CADAE2",
"f c #CBDAE2",
"g c #CCDAE2",
"h c #CCDBE2",
"j c #CCDBE3",
"k c #CEDCE4",
"l c #CFDDE4",
"z c #CFDDE5",
"x c #D0DDE5",
"c c #D0DEE5",
"v c #D1DFE6",
"b c #D2DFE6",
"n c #D3E0E7",
"m c #D4E0E7",
"M c #D4E1E7",
"N c #D4E1E8",
/* pixels */
"nnnnnnnnnnnnnnnnnnnnnnnnnnnnnnnnnnnnnnnnnnnnnnnnnnnnnnnnnnnnnnnnnnnnnnnnnnnnnnnnnnnnnnnnnnnnnnnn",
"nnnnnnnnnnnnnnnnnnnnnnnnnnnnnnnnnnnnnnnnnnnnnnnnnnnnnnnnnnnnnnnnnnnnnnnnnnnnnnnnnnnnnnnnnnnnnnnn",
"nnnnnnnnnnnnnnnnnnnnmmmmmmmmmmnnmmnnnnnnnnnnnnnnnnnnnnnnnnnnnnnnmmmmmmmmmmmmnnnnnnnnnnnnnnnnnnnn",
"nnnnnnnnnnnnnnnnnnnmmmmmmmmmNNmmmmmmnnnnnnnnnnnnnnnnnnnnnnnnnnnmNNNNmmmmmmmNmnnnnnnnnnnnnnnnnnnn",
"nnnnnnnnnnnnnnnnnnbbbbbbbbbbbbbbbbbbnnnnnnnnnnnnnnnnnnnnnnnnnnnbbbbbbbbbbbbbbbnnnnnnnnnnnnnnnnnn",
"nnnnnnnnnnnnnnnmnbzjsjjjjjjjjjjjssjzbnmnnnnnnnnnnnnnnnnnnnnnmnbzjsjjjjjjjjjsjzbnmnnnnnnnnnnnnnnn",
"nnnnnnnnnnnnnnmNnzsyrrrrrrrrrrrrrrysznNmnnnnnnnnnnnnnnnnnnnmNnzsyrrrrrrrrrrrysznNmnnnnnnnnnnnnnn",
"nnnnnnnnnnnnnnnnbsr9777777777777779rsbnnnnnnnnnnnnnnnnnnnnnnnbsr9577777777779rsbnnnnnnnnnnnnnnnn",
"nnnnnnnnnnnnmnbzsy742222222233332247yszbnmnnnnnnnnnnnnnnnmnbzsy742222222222247yszbnmnnnnnnnnnnnn",
"nnnnnnnnnnnmNnzsr73-********----*$-27rsznNmnnnnnnnnnnnnnmNnzsr72-**-********-39rsznNmnnnnnnnnnnn",
"nnnnnnnnnnnnnbsr73-#.OOOOOOOOOOO..#-37rsbnnnnnnnnnnnnnnnnnbsr73-#OOOOOOOOOO.#-39rsbnnnnnnnnnnnnn",
"nnnnnnnnnmnbzsy93-$................#-39yszbnmnnnnnnnnnmnbzsy93-#.............#-39yszbnmnnnnnnnnn",
"nnnnnnnnmNnzsr93-$O................O$-39rsznNmnnnnnnnmNnzsr93-#O.............O$-39rsznNmnnnnnnnn",
"nnnnnnnnnnbsr73-#....................#-37rsbnnnnnnnnnnnbsr73-#.................#-37rsbnnnnnnnnnn",
"nnnnnnmnbzsy93-#......................$-39yszbnmnnnmnbzsy93-#...................#-39yszbnmnnnnnn",
"nnnnnmNnzsr93-#O......................O$-39rsznNmnmNnzsr93-#O...................O#-39rsznNmnnnnn",
"nnnnnnnbsr73-#..........................#-37rsbnnnnnbsr73-#.......................#-37rsbnnnnnnn",
"nnnnnbzsy73-#............................#-39yszbnbzsy93-#.........................#-37yszbnnnnn",
"nnnmbzsr72-#O............................O#-39rsbbbsr93-#O.........................O#-27rszbmnnn",
"nnnmbjy93-#................................#-37yjzjy73-#.............................#-49yjbmmnn",
"nnnNbsr52*..................................$-39ysy93-$...............................$25rsbNmnn",
"nnmNbsr72*O.................................O$-39w93-#O...............................*27rsbmmnn",
"nnmNbjr73-O...................................#-454-#................................O*27yjbmmnn",
"nnmNbjy73-O....................................$>,>$.................................O-37rjbmnnn",
"nnmmbjr72*O....................................#$*$#.................................O-37rjbmnnn",
"nnmmbjr72*O....................................OOOOO.................................O-37rjbmnnn",
"nnmmbjr72*O..........................................................................O-37rjbNmnn",
"nnmmbjr72*O..........................................................................O-37rjbNmnn",
"nnmmbjr72*O..........................................................................O*27rjbmmnn",
"nnmmbjr72*O..........................................................................O*27rjbmmnn",
"nnmmbjr72*O..........................................................................O*27rjbmmnn",
"nnmmbjr72*O..........................................................................O*27rjbmmnn",
"nnnmbjr73-O..........................................................................O-37rjbmnnn",
"nnnmbjr73-O..........................................................................O-37rjbmnnn",
"nnmmbjr73-O..........................................................................O-37rjbNmnn",
"nnmNbjr72-O..........................................................................O-37rjbNmnn",
"nnmNbjr72*O..........................................................................O*27rjbmmnn",
"nnmNbjr72*O..........................................................................O*27rjbmmnn",
"nnmmbjr72*...........................................................................O*27rjbmmnn",
"nnmmbsr72$............................................................................$27rsbNmnn",
"nnnmbjy94-#..........................................................................#-49yjbmmnn",
"nnnmbzsr72-#O......................................................................O#-27rszbmnnn",
"nnnnnbzsy73-#......................................................................$-39yszbnnnnn",
"nnnnnnnbsr73-#....................................................................#-37rsbnnnnnnn",
"nnnnnmNnzsr93-$O................................................................O$-39rsznNmnnnnn",
"nnnnnnmnbzsy93-$................................................................$-39yszbnmnnnnnn",
"nnnnnnnnnnbsr73-#..............................................................#-37rsbnnnnnnnnnn",
"nnnnnnnnmNnzsy93-$#O.........................................................#$-39ysznNmnnnnnnnn",
"nnnnnnnnnmnbbjyq4,$O........................................................O$>49yjbbnmnnnnnnnnn",
"nnnnnnnnnnnnbzsw52*O........................................................O*,5wszbnnnnnnnnnnnn",
"nnnnnnnnnmnbbjy94>$O........................................................O$,49yjbbnmnnnnnnnnn",
"nnnnnnnnmNnzsy93-$#..........................................................#$-39ysznNmnnnnnnnn",
"nnnnnnnnnnbsr73-#..............................................................#-37rsbnnnnnnnnnn",
"nnnnnnmnbzsy93-#................................................................#-39yszbnmnnnnnn",
"nnnnnmNnzsr92-#O................................................................O#-39rsznNmnnnnn",
"nnnnnnnbsr73-#....................................................................#-37rsbnnnnnnn",
"nnnnnbzsy73-#......................................................................$-39yszbnnnnn",
"nnnnbzsr72-#O......................................................................O$-37rszbmnnn",
"nnmmbjy94-#..........................................................................#-49yjbmnnn",
"nnmmbsr72$............................................................................*27rsbmmnn",
"nnmNbsr72*O..........................................................................O*27rjbNmnn",
"nnmmbjr73-O..........................................................................O*27rjbmmnn",
"nnmmbjr73-O..........................................................................O*27rjbmmnn",
"nnmmbjr72*O..........................................................................O*27rjbmmnn",
"nnmmbjr72*O..........................................................................O*27rjbNmnn",
"nnmmbjr72*O..........................................................................O*27rjbNmnn",
"nnmmbjr72*O..........................................................................O*27rjbmnnn",
"nnmmbjy72*O..........................................................................O*27rjbmnnn",
"nnmmbjy73-O..........................................................................O-27rjbmmnn",
"nnmmbjy93-O..........................................................................O-37rjbmmnn",
"nnnmbjy93-O....................................OOOOO.................................O-37rjbNmnn",
"nnnmbjy93-O....................................#$*$#.................................O-37rjbmmnn",
"nnmmbjy93*O....................................$>2>$.................................O*27rjbmnnn",
"nnmmbjy72*O...................................#-454-#................................O*27rjbmnnn",
"nnmmbsr72*..................................O#-3qwq3-#O...............................*27rjbNmnn",
"nnmmbsr52$..................................#-39ysy93-#...............................$27rsbNmnn",
"nnmmbjy94-#................................#-37yjzjy73-#.............................#-49yjbmmnn",
"nnnmbzsr72-#O............................O$-39rsbbbsr72-$O.........................O#-27rszbmnnn",
"nnnnnbzsy73-#............................$-39yszbnbzsy93-$.........................$-37yszbnnnnn",
"nnnnnnnbsr73-#..........................#-39rsbnnnnnbsr73-#.......................#-37rsbnnnnnnn",
"nnnnnmNnzsr93-#O......................O#-39rsznNmnmNnzsr93-#O...................O$-39rsznNmnnnnn",
"nnnnnnmnbzsy93-#......................#-39yszbnmnnnmnbzsy93-#...................$-39yszbnmnnnnnn",
"nnnnnnnnnnbsr73-#....................#-37rsbnnnnnnnnnnnbsr73-#.................#-37rsbnnnnnnnnnn",
"nnnnnnnnmNnzsr93-$O................O$-39rsznNmnnnnnnnmNnzsr93-#O.............O#-39rsznNmnnnnnnnn",
"nnnnnnnnnmnbzsy93-#................#-39yszbnmnnnnnnnnnmnbzsy73-#.............#-39yszbnmnnnnnnnnn",
"nnnnnnnnnnnnnbsr93-#.OOOOOOOOOOOO.#-37rsbnnnnnnnnnnnnnnnnnbsr73-#OOOOOOOOOOO#-37rsbnnnnnnnnnnnnn",
"nnnnnnnnnnnmNnzsr93-********----**-27rsznNmnnnnnnnnnnnnnmNnzsr72-**-********-27rsznNmnnnnnnnnnnn",
"nnnnnnnnnnnnmnbzsy742222222223332247yszbnmnnnnnnnnnnnnnnnmnbzsy742232222232237yszbnmnnnnnnnnnnnn",
"nnnnnnnnnnnnnnnnbsr9777777777777779rsbnnnnnnnnnnnnnnnnnnnnnnnbsr9577777777779rsbnnnnnnnnnnnnnnnn",
"nnnnnnnnnnnnnnmNnzsyrrrrrrrrrrrrrrysznNmnnnnnnnnnnnnnnnnnnnmNnzsyrrryyyyrrrrysznNmnnnnnnnnnnnnnn",
"nnnnnnnnnnnnnnnmnbzjsjjjjjjjjjjjjsjzbnmnnnnnnnnnnnnnnnnnnnnnmnbzjssjjjjjjjjsjzbnmnnnnnnnnnnnnnnn",
"nnnnnnnnnnnnnnnnnnbbbbbbbbbbbbbbbbbbnnnnnnnnnnnnnnnnnnnnnnnnnnnbbbbbbbbbbbbbbbnnnnnnnnnnnnnnnnnn",
"nnnnnnnnnnnnnnnnnnnmNmmmmmNNmmmmNNmmnnnnnnnnnnnnnnnnnnnnnnnnnnnmmmNNNmmmmmmNmmnnnnnnnnnnnnnnnnnn",
"nnnnnnnnnnnnnnnnnnnnmmmmmmmmmmnnmmnnnnnnnnnnnnnnnnnnnnnnnnnnnnnnnmmmnnnnmmmmmnnnnnnnnnnnnnnnnnnn",
"nnnnnnnnnnnnnnnnnnnnnnnnnnnnnnnnnnnnnnnnnnnnnnnnnnnnnnnnnnnnnnnnnnnnnnnnnnnnnnnnnnnnnnnnnnnnnnnn",
"nnnnnnnnnnnnnnnnnnnnnnnnnnnnnnnnnnnnnnnnnnnnnnnnnnnnnnnnnnnnnnnnnnnnnnnnnnnnnnnnnnnnnnnnnnnnnnnn"
};
