/* XPM */
static char *aac7afa2ec3446e3a2688c10edecd290230DarMqALtxgFxb[] = {
/* columns rows colors chars-per-pixel */
"96 96 3 1 ",
"  c #C9A6A6",
". c #D8BBBB",
"X c #E7D3D3",
/* pixels */
"XXXXXXXXXXXXXXXXXXXXXXXXXXXXXXXXXXXXXXXXXXXXXXXXXXXXXXXXXXXXXXXXXXXXXXXXXXXXXXXXXXXXXXXXXXXXXXXX",
"XXXXXXXXXXXXXXXXXXXXXXXXXXXXXXXXXXXXXXXXXXXXXXXXXXXXXXXXXXXXXXXXXXXXXXXXXXXXXXXXXXXXXXXXXXXXXXXX",
"XXXXXXXXXXXXXXXXXXXXXXXXXXXXXXXXXXXXXXXXXXXXXXXXXXXXXXXXXXXXXXXXXXXXXXXXXXXXXXXXXXXXXXXXXXXXXXXX",
"XXXXXXXXXXXXXXXXXXXXXXXXXXXXXXXXXXXXXXXXXXXXXXXXXXXXXXXXXXXXXXXXXXXXXXXXXXXXXXXXXXXXXXXXXXXXXXXX",
"XXXXXXXXXXXXXXXXXXXXXXXXXXXXXXXXXXXXXXXXXXXXXXXXXXXXXXXXXXXXXXXXXXXXXXXXXXXXXXXXXXXXXXXXXXXXXXXX",
"XXXXXXXXXXXXXXXXXXXXXXXXXXXXXXXXXXXXXXXXXXXXXXXXXXXXXXXXXXXXXXXXXXXXXXXXXXXXXXXXXXXXXXXXXXXXXXXX",
"XXXXXXXXXXXXXXXXXX..................XXXXXXXXXXXXXXXXXXXXXXXXXXX...............XXXXXXXXXXXXXXXXXX",
"XXXXXXXXXXXXXXXXXX..................XXXXXXXXXXXXXXXXXXXXXXXXXXX...............XXXXXXXXXXXXXXXXXX",
"XXXXXXXXXXXXXXXXXX..................XXXXXXXXXXXXXXXXXXXXXXXXXXX...............XXXXXXXXXXXXXXXXXX",
"XXXXXXXXXXXXXXX...                  ...XXXXXXXXXXXXXXXXXXXXX...               ...XXXXXXXXXXXXXXX",
"XXXXXXXXXXXXXXX...                  ...XXXXXXXXXXXXXXXXXXXXX...               ...XXXXXXXXXXXXXXX",
"XXXXXXXXXXXXXXX...                  ...XXXXXXXXXXXXXXXXXXXXX...               ...XXXXXXXXXXXXXXX",
"XXXXXXXXXXXX...                        ...XXXXXXXXXXXXXXX...                     ...XXXXXXXXXXXX",
"XXXXXXXXXXXX...                        ...XXXXXXXXXXXXXXX...                     ...XXXXXXXXXXXX",
"XXXXXXXXXXXX...                        ...XXXXXXXXXXXXXXX...                     ...XXXXXXXXXXXX",
"XXXXXXXXX...                              ...XXXXXXXXX...                           ...XXXXXXXXX",
"XXXXXXXXX...                              ...XXXXXXXXX...                           ...XXXXXXXXX",
"XXXXXXXXX...                              ...XXXXXXXXX...                           ...XXXXXXXXX",
"XXXXXX...                                    ...XXX...                                 ...XXXXXX",
"XXXXXX...                                    ...XXX...                                 ...XXXXXX",
"XXXXXX...                                    ...XXX...                                 ...XXXXXX",
"XXXXXX...                                       ...                                    ...XXXXXX",
"XXXXXX...                                       ...                                    ...XXXXXX",
"XXXXXX...                                       ...                                    ...XXXXXX",
"XXXXXX...                                                                              ...XXXXXX",
"XXXXXX...                                                                              ...XXXXXX",
"XXXXXX...                                                                              ...XXXXXX",
"XXXXXX...                                                                              ...XXXXXX",
"XXXXXX...                                                                              ...XXXXXX",
"XXXXXX...                                                                              ...XXXXXX",
"XXXXXX...                                                                              ...XXXXXX",
"XXXXXX...                                                                              ...XXXXXX",
"XXXXXX...                                                                              ...XXXXXX",
"XXXXXX...                                                                              ...XXXXXX",
"XXXXXX...                                                                              ...XXXXXX",
"XXXXXX...                                                                              ...XXXXXX",
"XXXXXX...                                                                              ...XXXXXX",
"XXXXXX...                                                                              ...XXXXXX",
"XXXXXX...                                                                              ...XXXXXX",
"XXXXXX...                                                                              ...XXXXXX",
"XXXXXX...                                                                              ...XXXXXX",
"XXXXXX...                                                                              ...XXXXXX",
"XXXXXXXXX...                                                                        ...XXXXXXXXX",
"XXXXXXXXX...                                                                        ...XXXXXXXXX",
"XXXXXXXXX...                                                                        ...XXXXXXXXX",
"XXXXXXXXXXXX...                                                                  ...XXXXXXXXXXXX",
"XXXXXXXXXXXX...                                                                  ...XXXXXXXXXXXX",
"XXXXXXXXXXXX...                                                                  ...XXXXXXXXXXXX",
"XXXXXXXXXXXXXXX...                                                            ...XXXXXXXXXXXXXXX",
"XXXXXXXXXXXXXXX...                                                            ...XXXXXXXXXXXXXXX",
"XXXXXXXXXXXXXXX...                                                            ...XXXXXXXXXXXXXXX",
"XXXXXXXXXXXX...                                                                  ...XXXXXXXXXXXX",
"XXXXXXXXXXXX...                                                                  ...XXXXXXXXXXXX",
"XXXXXXXXXXXX...                                                                  ...XXXXXXXXXXXX",
"XXXXXXXXX...                                                                        ...XXXXXXXXX",
"XXXXXXXXX...                                                                        ...XXXXXXXXX",
"XXXXXXXXX...                                                                        ...XXXXXXXXX",
"XXXXXX...                                                                              ...XXXXXX",
"XXXXXX...                                                                              ...XXXXXX",
"XXXXXX...                                                                              ...XXXXXX",
"XXXXXX...                                                                              ...XXXXXX",
"XXXXXX...                                                                              ...XXXXXX",
"XXXXXX...                                                                              ...XXXXXX",
"XXXXXX...                                                                              ...XXXXXX",
"XXXXXX...                                                                              ...XXXXXX",
"XXXXXX...                                                                              ...XXXXXX",
"XXXXXX...                                                                              ...XXXXXX",
"XXXXXX...                                                                              ...XXXXXX",
"XXXXXX...                                                                              ...XXXXXX",
"XXXXXX...                                                                              ...XXXXXX",
"XXXXXX...                                                                              ...XXXXXX",
"XXXXXX...                                                                              ...XXXXXX",
"XXXXXX...                                       ...                                    ...XXXXXX",
"XXXXXX...                                       ...                                    ...XXXXXX",
"XXXXXX...                                       ...                                    ...XXXXXX",
"XXXXXX...                                    ...XXX...                                 ...XXXXXX",
"XXXXXX...                                    ...XXX...                                 ...XXXXXX",
"XXXXXX...                                    ...XXX...                                 ...XXXXXX",
"XXXXXXXXX...                              ...XXXXXXXXX...                           ...XXXXXXXXX",
"XXXXXXXXX...                              ...XXXXXXXXX...                           ...XXXXXXXXX",
"XXXXXXXXX...                              ...XXXXXXXXX...                           ...XXXXXXXXX",
"XXXXXXXXXXXX...                        ...XXXXXXXXXXXXXXX...                     ...XXXXXXXXXXXX",
"XXXXXXXXXXXX...                        ...XXXXXXXXXXXXXXX...                     ...XXXXXXXXXXXX",
"XXXXXXXXXXXX...                        ...XXXXXXXXXXXXXXX...                     ...XXXXXXXXXXXX",
"XXXXXXXXXXXXXXX...                  ...XXXXXXXXXXXXXXXXXXXXX...               ...XXXXXXXXXXXXXXX",
"XXXXXXXXXXXXXXX...                  ...XXXXXXXXXXXXXXXXXXXXX...               ...XXXXXXXXXXXXXXX",
"XXXXXXXXXXXXXXX...                  ...XXXXXXXXXXXXXXXXXXXXX...               ...XXXXXXXXXXXXXXX",
"XXXXXXXXXXXXXXXXXX..................XXXXXXXXXXXXXXXXXXXXXXXXXXX...............XXXXXXXXXXXXXXXXXX",
"XXXXXXXXXXXXXXXXXX..................XXXXXXXXXXXXXXXXXXXXXXXXXXX...............XXXXXXXXXXXXXXXXXX",
"XXXXXXXXXXXXXXXXXX..................XXXXXXXXXXXXXXXXXXXXXXXXXXX...............XXXXXXXXXXXXXXXXXX",
"XXXXXXXXXXXXXXXXXXXXXXXXXXXXXXXXXXXXXXXXXXXXXXXXXXXXXXXXXXXXXXXXXXXXXXXXXXXXXXXXXXXXXXXXXXXXXXXX",
"XXXXXXXXXXXXXXXXXXXXXXXXXXXXXXXXXXXXXXXXXXXXXXXXXXXXXXXXXXXXXXXXXXXXXXXXXXXXXXXXXXXXXXXXXXXXXXXX",
"XXXXXXXXXXXXXXXXXXXXXXXXXXXXXXXXXXXXXXXXXXXXXXXXXXXXXXXXXXXXXXXXXXXXXXXXXXXXXXXXXXXXXXXXXXXXXXXX",
"XXXXXXXXXXXXXXXXXXXXXXXXXXXXXXXXXXXXXXXXXXXXXXXXXXXXXXXXXXXXXXXXXXXXXXXXXXXXXXXXXXXXXXXXXXXXXXXX",
"XXXXXXXXXXXXXXXXXXXXXXXXXXXXXXXXXXXXXXXXXXXXXXXXXXXXXXXXXXXXXXXXXXXXXXXXXXXXXXXXXXXXXXXXXXXXXXXX",
"XXXXXXXXXXXXXXXXXXXXXXXXXXXXXXXXXXXXXXXXXXXXXXXXXXXXXXXXXXXXXXXXXXXXXXXXXXXXXXXXXXXXXXXXXXXXXXXX"
};
