/* XPM */
static const char *cat_img[] = {
/* columns rows colors chars-per-pixel */
"32 32 9 1 ",
"  c black",
". c #252629",
"X c #353434",
"o c #766F46",
"O c #B1A561",
"+ c #E9DA8B",
"@ c #A6BFC9",
"# c #BBCED8",
"$ c #D3E0E7",
/* pixels */
"@@@@@@@@@@@@@@@@@@@@@@@@@@@@@@@@",
"@@@@@@@@@@@@@@@@@@@@@@@@@@@@@@@@",
"@@@@@@#$$$$#@@@@@@@@@#$$$#@@@@@@",
"@@@@@#$$$$$$#@@@@@@@#$$$$$#@@@@@",
"@@@@#$$$$$$$$#@@@@@#$$$$$$$#@@@@",
"@@@#$$$$$$$$$$#@@   $$$$   $#@@@",
"@@#$$$$$ $$$$$$#     $$     $#@@",
"@@$$$$$ . $$$$$$     $$     $$@@",
"@@$$$$$ . $$$$$$            $$@@",
"@@$$$$$ . $$$$$$            $$@@",
"@@$$$$ .. $$$$$             $$@@",
"@@$$$ .. $$$$$$      +    +  $@@",
"@@$$$ . $$$$$$$      O    O  $@@",
"@@#$$ . $$$$$$$              #@@",
"@@@#$ .. $$$$$$$ .....    .. @@@",
"@@@@# ...       X   ...  .. @@@@",
"@@@@@ ..........XX ....... @@@@@",
"@@@@#$ ..........XX       $#@@@@",
"@@@#$$ ...........XXXXXXX$$$#@@@",
"@@#$$$$  ............o.. $$$$#@@",
"@@$$$$$$ ............... $$$$$@@",
"@@$$$$$$ ............... $$$$$@@",
"@@$$$$$$ .............. $$$$$$@@",
"@@$$$$$$ ... ... .. ... $$$$$$@@",
"@@$$$$$$ ... ... .. ... $$$$$$@@",
"@@#$$$$$ ..  ..  ..  .. $$$$$#@@",
"@@@#$$$$$   $   @   $  $$$$$#@@@",
"@@@@#$$$$$$$$#@@@@@#$$$$$$$#@@@@",
"@@@@@#$$$$$$#@@@@@@@#$$$$$#@@@@@",
"@@@@@@#$$$$#@@@@@@@@@#$$$#@@@@@@",
"@@@@@@@@@@@@@@@@@@@@@@@@@@@@@@@@",
"@@@@@@@@@@@@@@@@@@@@@@@@@@@@@@@@"
};
