/* XPM */
static char *_5b00fb5a001413faba5e00d7c81146bzQMRzb7dlTjKlV0L[] = {
/* columns rows colors chars-per-pixel */
"32 32 4 1 ",
"  c #A6BFC9",
". c #BBCED8",
"X c #BCCED8",
"o c #D3E0E7",
/* pixels */
"oooooooooooooooooooooooooooooooo",
"oooooooooooooooooooooooooooooooo",
"oooooo......ooooooooo.....oooooo",
"ooooo.      .ooooooo.     .ooooo",
"oooo.        .ooooo.       .oooo",
"ooo.          .ooo.         .ooo",
"oo.            .o.           .oo",
"oo.             .            .oo",
"oo.                          .oo",
"oo.                          .oo",
"oo.                          .oo",
"oo.                          .oo",
"oo.                          .oo",
"oo.                          .oo",
"ooo.                        .ooo",
"oooo.                      .oooo",
"ooooo.                    .ooooo",
"oooo.                      .oooo",
"ooo.                        .ooo",
"oo.                          .oo",
"oo.                          .oo",
"oo.                          .oo",
"oo.                          .oo",
"ooX                          .oo",
"oo.             .            .oo",
"oo.            .o.           .oo",
"ooo.          .ooo.         .ooo",
"oooo.        .ooooo.       .oooo",
"ooooo.      .ooooooo.     .ooooo",
"oooooo......ooooooooo.....oooooo",
"oooooooooooooooooooooooooooooooo",
"oooooooooooooooooooooooooooooooo"
};
